<mxfile host="app.diagrams.net" agent="Mozilla/5.0 (Windows NT 10.0; Win64; x64) AppleWebKit/537.36 (KHTML, like Gecko) Chrome/135.0.0.0 Safari/537.36" version="26.2.12">
  <diagram name="Page-1" id="r03AUBJVHuk6xZoYGa7T">
    <mxGraphModel dx="3078" dy="2733" grid="0" gridSize="10" guides="1" tooltips="1" connect="1" arrows="1" fold="1" page="0" pageScale="1" pageWidth="850" pageHeight="1100" math="0" shadow="0">
      <root>
        <mxCell id="0" />
        <mxCell id="1" parent="0" />
        <mxCell id="eOEK0WOAhkfJN-G2YjFY-1" value="Customer" style="shape=table;startSize=33;container=1;collapsible=1;childLayout=tableLayout;fixedRows=1;rowLines=0;fontStyle=1;align=center;resizeLast=1;html=1;" parent="1" vertex="1">
          <mxGeometry x="50" y="-221" width="180" height="213" as="geometry" />
        </mxCell>
        <mxCell id="eOEK0WOAhkfJN-G2YjFY-2" value="" style="shape=tableRow;horizontal=0;startSize=0;swimlaneHead=0;swimlaneBody=0;fillColor=none;collapsible=0;dropTarget=0;points=[[0,0.5],[1,0.5]];portConstraint=eastwest;top=0;left=0;right=0;bottom=1;" parent="eOEK0WOAhkfJN-G2YjFY-1" vertex="1">
          <mxGeometry y="33" width="180" height="30" as="geometry" />
        </mxCell>
        <mxCell id="eOEK0WOAhkfJN-G2YjFY-3" value="PK" style="shape=partialRectangle;connectable=0;fillColor=none;top=0;left=0;bottom=0;right=0;fontStyle=1;overflow=hidden;whiteSpace=wrap;html=1;" parent="eOEK0WOAhkfJN-G2YjFY-2" vertex="1">
          <mxGeometry width="30" height="30" as="geometry">
            <mxRectangle width="30" height="30" as="alternateBounds" />
          </mxGeometry>
        </mxCell>
        <mxCell id="eOEK0WOAhkfJN-G2YjFY-4" value="Cus_ID" style="shape=partialRectangle;connectable=0;fillColor=none;top=0;left=0;bottom=0;right=0;align=left;spacingLeft=6;fontStyle=5;overflow=hidden;whiteSpace=wrap;html=1;" parent="eOEK0WOAhkfJN-G2YjFY-2" vertex="1">
          <mxGeometry x="30" width="150" height="30" as="geometry">
            <mxRectangle width="150" height="30" as="alternateBounds" />
          </mxGeometry>
        </mxCell>
        <mxCell id="eOEK0WOAhkfJN-G2YjFY-5" value="" style="shape=tableRow;horizontal=0;startSize=0;swimlaneHead=0;swimlaneBody=0;fillColor=none;collapsible=0;dropTarget=0;points=[[0,0.5],[1,0.5]];portConstraint=eastwest;top=0;left=0;right=0;bottom=0;" parent="eOEK0WOAhkfJN-G2YjFY-1" vertex="1">
          <mxGeometry y="63" width="180" height="30" as="geometry" />
        </mxCell>
        <mxCell id="eOEK0WOAhkfJN-G2YjFY-6" value="" style="shape=partialRectangle;connectable=0;fillColor=none;top=0;left=0;bottom=0;right=0;editable=1;overflow=hidden;whiteSpace=wrap;html=1;" parent="eOEK0WOAhkfJN-G2YjFY-5" vertex="1">
          <mxGeometry width="30" height="30" as="geometry">
            <mxRectangle width="30" height="30" as="alternateBounds" />
          </mxGeometry>
        </mxCell>
        <mxCell id="eOEK0WOAhkfJN-G2YjFY-7" value="CUS_FNAME" style="shape=partialRectangle;connectable=0;fillColor=none;top=0;left=0;bottom=0;right=0;align=left;spacingLeft=6;overflow=hidden;whiteSpace=wrap;html=1;" parent="eOEK0WOAhkfJN-G2YjFY-5" vertex="1">
          <mxGeometry x="30" width="150" height="30" as="geometry">
            <mxRectangle width="150" height="30" as="alternateBounds" />
          </mxGeometry>
        </mxCell>
        <mxCell id="eOEK0WOAhkfJN-G2YjFY-8" value="" style="shape=tableRow;horizontal=0;startSize=0;swimlaneHead=0;swimlaneBody=0;fillColor=none;collapsible=0;dropTarget=0;points=[[0,0.5],[1,0.5]];portConstraint=eastwest;top=0;left=0;right=0;bottom=0;" parent="eOEK0WOAhkfJN-G2YjFY-1" vertex="1">
          <mxGeometry y="93" width="180" height="30" as="geometry" />
        </mxCell>
        <mxCell id="eOEK0WOAhkfJN-G2YjFY-9" value="" style="shape=partialRectangle;connectable=0;fillColor=none;top=0;left=0;bottom=0;right=0;editable=1;overflow=hidden;whiteSpace=wrap;html=1;" parent="eOEK0WOAhkfJN-G2YjFY-8" vertex="1">
          <mxGeometry width="30" height="30" as="geometry">
            <mxRectangle width="30" height="30" as="alternateBounds" />
          </mxGeometry>
        </mxCell>
        <mxCell id="eOEK0WOAhkfJN-G2YjFY-10" value="CUS_LNAME" style="shape=partialRectangle;connectable=0;fillColor=none;top=0;left=0;bottom=0;right=0;align=left;spacingLeft=6;overflow=hidden;whiteSpace=wrap;html=1;" parent="eOEK0WOAhkfJN-G2YjFY-8" vertex="1">
          <mxGeometry x="30" width="150" height="30" as="geometry">
            <mxRectangle width="150" height="30" as="alternateBounds" />
          </mxGeometry>
        </mxCell>
        <mxCell id="eOEK0WOAhkfJN-G2YjFY-11" value="" style="shape=tableRow;horizontal=0;startSize=0;swimlaneHead=0;swimlaneBody=0;fillColor=none;collapsible=0;dropTarget=0;points=[[0,0.5],[1,0.5]];portConstraint=eastwest;top=0;left=0;right=0;bottom=0;" parent="eOEK0WOAhkfJN-G2YjFY-1" vertex="1">
          <mxGeometry y="123" width="180" height="30" as="geometry" />
        </mxCell>
        <mxCell id="eOEK0WOAhkfJN-G2YjFY-12" value="" style="shape=partialRectangle;connectable=0;fillColor=none;top=0;left=0;bottom=0;right=0;editable=1;overflow=hidden;whiteSpace=wrap;html=1;" parent="eOEK0WOAhkfJN-G2YjFY-11" vertex="1">
          <mxGeometry width="30" height="30" as="geometry">
            <mxRectangle width="30" height="30" as="alternateBounds" />
          </mxGeometry>
        </mxCell>
        <mxCell id="eOEK0WOAhkfJN-G2YjFY-13" value="CUS_PHONE" style="shape=partialRectangle;connectable=0;fillColor=none;top=0;left=0;bottom=0;right=0;align=left;spacingLeft=6;overflow=hidden;whiteSpace=wrap;html=1;" parent="eOEK0WOAhkfJN-G2YjFY-11" vertex="1">
          <mxGeometry x="30" width="150" height="30" as="geometry">
            <mxRectangle width="150" height="30" as="alternateBounds" />
          </mxGeometry>
        </mxCell>
        <mxCell id="UilIoNY0k18aBem4BEjZ-25" value="" style="shape=tableRow;horizontal=0;startSize=0;swimlaneHead=0;swimlaneBody=0;fillColor=none;collapsible=0;dropTarget=0;points=[[0,0.5],[1,0.5]];portConstraint=eastwest;top=0;left=0;right=0;bottom=0;" parent="eOEK0WOAhkfJN-G2YjFY-1" vertex="1">
          <mxGeometry y="153" width="180" height="30" as="geometry" />
        </mxCell>
        <mxCell id="UilIoNY0k18aBem4BEjZ-26" value="" style="shape=partialRectangle;connectable=0;fillColor=none;top=0;left=0;bottom=0;right=0;editable=1;overflow=hidden;whiteSpace=wrap;html=1;" parent="UilIoNY0k18aBem4BEjZ-25" vertex="1">
          <mxGeometry width="30" height="30" as="geometry">
            <mxRectangle width="30" height="30" as="alternateBounds" />
          </mxGeometry>
        </mxCell>
        <mxCell id="UilIoNY0k18aBem4BEjZ-27" value="CUS_ADDRESS" style="shape=partialRectangle;connectable=0;fillColor=none;top=0;left=0;bottom=0;right=0;align=left;spacingLeft=6;overflow=hidden;whiteSpace=wrap;html=1;" parent="UilIoNY0k18aBem4BEjZ-25" vertex="1">
          <mxGeometry x="30" width="150" height="30" as="geometry">
            <mxRectangle width="150" height="30" as="alternateBounds" />
          </mxGeometry>
        </mxCell>
        <mxCell id="UilIoNY0k18aBem4BEjZ-28" value="" style="shape=tableRow;horizontal=0;startSize=0;swimlaneHead=0;swimlaneBody=0;fillColor=none;collapsible=0;dropTarget=0;points=[[0,0.5],[1,0.5]];portConstraint=eastwest;top=0;left=0;right=0;bottom=0;" parent="eOEK0WOAhkfJN-G2YjFY-1" vertex="1">
          <mxGeometry y="183" width="180" height="30" as="geometry" />
        </mxCell>
        <mxCell id="UilIoNY0k18aBem4BEjZ-29" value="" style="shape=partialRectangle;connectable=0;fillColor=none;top=0;left=0;bottom=0;right=0;editable=1;overflow=hidden;whiteSpace=wrap;html=1;" parent="UilIoNY0k18aBem4BEjZ-28" vertex="1">
          <mxGeometry width="30" height="30" as="geometry">
            <mxRectangle width="30" height="30" as="alternateBounds" />
          </mxGeometry>
        </mxCell>
        <mxCell id="UilIoNY0k18aBem4BEjZ-30" value="CUS_AREA_CODE" style="shape=partialRectangle;connectable=0;fillColor=none;top=0;left=0;bottom=0;right=0;align=left;spacingLeft=6;overflow=hidden;whiteSpace=wrap;html=1;" parent="UilIoNY0k18aBem4BEjZ-28" vertex="1">
          <mxGeometry x="30" width="150" height="30" as="geometry">
            <mxRectangle width="150" height="30" as="alternateBounds" />
          </mxGeometry>
        </mxCell>
        <mxCell id="eOEK0WOAhkfJN-G2YjFY-14" value="Vendor" style="shape=table;startSize=30;container=1;collapsible=1;childLayout=tableLayout;fixedRows=1;rowLines=0;fontStyle=1;align=center;resizeLast=1;html=1;" parent="1" vertex="1">
          <mxGeometry x="801" y="-117" width="180" height="150" as="geometry" />
        </mxCell>
        <mxCell id="eOEK0WOAhkfJN-G2YjFY-15" value="" style="shape=tableRow;horizontal=0;startSize=0;swimlaneHead=0;swimlaneBody=0;fillColor=none;collapsible=0;dropTarget=0;points=[[0,0.5],[1,0.5]];portConstraint=eastwest;top=0;left=0;right=0;bottom=1;" parent="eOEK0WOAhkfJN-G2YjFY-14" vertex="1">
          <mxGeometry y="30" width="180" height="30" as="geometry" />
        </mxCell>
        <mxCell id="eOEK0WOAhkfJN-G2YjFY-16" value="PK" style="shape=partialRectangle;connectable=0;fillColor=none;top=0;left=0;bottom=0;right=0;fontStyle=1;overflow=hidden;whiteSpace=wrap;html=1;" parent="eOEK0WOAhkfJN-G2YjFY-15" vertex="1">
          <mxGeometry width="30" height="30" as="geometry">
            <mxRectangle width="30" height="30" as="alternateBounds" />
          </mxGeometry>
        </mxCell>
        <mxCell id="eOEK0WOAhkfJN-G2YjFY-17" value="V_ID" style="shape=partialRectangle;connectable=0;fillColor=none;top=0;left=0;bottom=0;right=0;align=left;spacingLeft=6;fontStyle=5;overflow=hidden;whiteSpace=wrap;html=1;" parent="eOEK0WOAhkfJN-G2YjFY-15" vertex="1">
          <mxGeometry x="30" width="150" height="30" as="geometry">
            <mxRectangle width="150" height="30" as="alternateBounds" />
          </mxGeometry>
        </mxCell>
        <mxCell id="eOEK0WOAhkfJN-G2YjFY-18" value="" style="shape=tableRow;horizontal=0;startSize=0;swimlaneHead=0;swimlaneBody=0;fillColor=none;collapsible=0;dropTarget=0;points=[[0,0.5],[1,0.5]];portConstraint=eastwest;top=0;left=0;right=0;bottom=0;" parent="eOEK0WOAhkfJN-G2YjFY-14" vertex="1">
          <mxGeometry y="60" width="180" height="30" as="geometry" />
        </mxCell>
        <mxCell id="eOEK0WOAhkfJN-G2YjFY-19" value="" style="shape=partialRectangle;connectable=0;fillColor=none;top=0;left=0;bottom=0;right=0;editable=1;overflow=hidden;whiteSpace=wrap;html=1;" parent="eOEK0WOAhkfJN-G2YjFY-18" vertex="1">
          <mxGeometry width="30" height="30" as="geometry">
            <mxRectangle width="30" height="30" as="alternateBounds" />
          </mxGeometry>
        </mxCell>
        <mxCell id="eOEK0WOAhkfJN-G2YjFY-20" value="V_NAME" style="shape=partialRectangle;connectable=0;fillColor=none;top=0;left=0;bottom=0;right=0;align=left;spacingLeft=6;overflow=hidden;whiteSpace=wrap;html=1;" parent="eOEK0WOAhkfJN-G2YjFY-18" vertex="1">
          <mxGeometry x="30" width="150" height="30" as="geometry">
            <mxRectangle width="150" height="30" as="alternateBounds" />
          </mxGeometry>
        </mxCell>
        <mxCell id="eOEK0WOAhkfJN-G2YjFY-21" value="" style="shape=tableRow;horizontal=0;startSize=0;swimlaneHead=0;swimlaneBody=0;fillColor=none;collapsible=0;dropTarget=0;points=[[0,0.5],[1,0.5]];portConstraint=eastwest;top=0;left=0;right=0;bottom=0;" parent="eOEK0WOAhkfJN-G2YjFY-14" vertex="1">
          <mxGeometry y="90" width="180" height="30" as="geometry" />
        </mxCell>
        <mxCell id="eOEK0WOAhkfJN-G2YjFY-22" value="" style="shape=partialRectangle;connectable=0;fillColor=none;top=0;left=0;bottom=0;right=0;editable=1;overflow=hidden;whiteSpace=wrap;html=1;" parent="eOEK0WOAhkfJN-G2YjFY-21" vertex="1">
          <mxGeometry width="30" height="30" as="geometry">
            <mxRectangle width="30" height="30" as="alternateBounds" />
          </mxGeometry>
        </mxCell>
        <mxCell id="eOEK0WOAhkfJN-G2YjFY-23" value="V_CONTACT" style="shape=partialRectangle;connectable=0;fillColor=none;top=0;left=0;bottom=0;right=0;align=left;spacingLeft=6;overflow=hidden;whiteSpace=wrap;html=1;" parent="eOEK0WOAhkfJN-G2YjFY-21" vertex="1">
          <mxGeometry x="30" width="150" height="30" as="geometry">
            <mxRectangle width="150" height="30" as="alternateBounds" />
          </mxGeometry>
        </mxCell>
        <mxCell id="eOEK0WOAhkfJN-G2YjFY-24" value="" style="shape=tableRow;horizontal=0;startSize=0;swimlaneHead=0;swimlaneBody=0;fillColor=none;collapsible=0;dropTarget=0;points=[[0,0.5],[1,0.5]];portConstraint=eastwest;top=0;left=0;right=0;bottom=0;" parent="eOEK0WOAhkfJN-G2YjFY-14" vertex="1">
          <mxGeometry y="120" width="180" height="30" as="geometry" />
        </mxCell>
        <mxCell id="eOEK0WOAhkfJN-G2YjFY-25" value="" style="shape=partialRectangle;connectable=0;fillColor=none;top=0;left=0;bottom=0;right=0;editable=1;overflow=hidden;whiteSpace=wrap;html=1;" parent="eOEK0WOAhkfJN-G2YjFY-24" vertex="1">
          <mxGeometry width="30" height="30" as="geometry">
            <mxRectangle width="30" height="30" as="alternateBounds" />
          </mxGeometry>
        </mxCell>
        <mxCell id="eOEK0WOAhkfJN-G2YjFY-26" value="V_PHONE" style="shape=partialRectangle;connectable=0;fillColor=none;top=0;left=0;bottom=0;right=0;align=left;spacingLeft=6;overflow=hidden;whiteSpace=wrap;html=1;" parent="eOEK0WOAhkfJN-G2YjFY-24" vertex="1">
          <mxGeometry x="30" width="150" height="30" as="geometry">
            <mxRectangle width="150" height="30" as="alternateBounds" />
          </mxGeometry>
        </mxCell>
        <mxCell id="eOEK0WOAhkfJN-G2YjFY-27" value="Invoice" style="shape=table;startSize=30;container=1;collapsible=1;childLayout=tableLayout;fixedRows=1;rowLines=0;fontStyle=1;align=center;resizeLast=1;html=1;" parent="1" vertex="1">
          <mxGeometry x="-333" y="-155" width="180" height="201.1500244140625" as="geometry" />
        </mxCell>
        <mxCell id="eOEK0WOAhkfJN-G2YjFY-28" value="" style="shape=tableRow;horizontal=0;startSize=0;swimlaneHead=0;swimlaneBody=0;fillColor=none;collapsible=0;dropTarget=0;points=[[0,0.5],[1,0.5]];portConstraint=eastwest;top=0;left=0;right=0;bottom=1;" parent="eOEK0WOAhkfJN-G2YjFY-27" vertex="1">
          <mxGeometry y="30" width="180" height="51" as="geometry" />
        </mxCell>
        <mxCell id="eOEK0WOAhkfJN-G2YjFY-29" value="PK&lt;div&gt;FK&lt;/div&gt;" style="shape=partialRectangle;connectable=0;fillColor=none;top=0;left=0;bottom=0;right=0;fontStyle=1;overflow=hidden;whiteSpace=wrap;html=1;" parent="eOEK0WOAhkfJN-G2YjFY-28" vertex="1">
          <mxGeometry width="30" height="51" as="geometry">
            <mxRectangle width="30" height="51" as="alternateBounds" />
          </mxGeometry>
        </mxCell>
        <mxCell id="eOEK0WOAhkfJN-G2YjFY-30" value="Invo_ID&lt;div&gt;Cus_ID&lt;/div&gt;" style="shape=partialRectangle;connectable=0;fillColor=none;top=0;left=0;bottom=0;right=0;align=left;spacingLeft=6;fontStyle=5;overflow=hidden;whiteSpace=wrap;html=1;" parent="eOEK0WOAhkfJN-G2YjFY-28" vertex="1">
          <mxGeometry x="30" width="150" height="51" as="geometry">
            <mxRectangle width="150" height="51" as="alternateBounds" />
          </mxGeometry>
        </mxCell>
        <mxCell id="eOEK0WOAhkfJN-G2YjFY-31" value="" style="shape=tableRow;horizontal=0;startSize=0;swimlaneHead=0;swimlaneBody=0;fillColor=none;collapsible=0;dropTarget=0;points=[[0,0.5],[1,0.5]];portConstraint=eastwest;top=0;left=0;right=0;bottom=0;" parent="eOEK0WOAhkfJN-G2YjFY-27" vertex="1">
          <mxGeometry y="81" width="180" height="30" as="geometry" />
        </mxCell>
        <mxCell id="eOEK0WOAhkfJN-G2YjFY-32" value="" style="shape=partialRectangle;connectable=0;fillColor=none;top=0;left=0;bottom=0;right=0;editable=1;overflow=hidden;whiteSpace=wrap;html=1;" parent="eOEK0WOAhkfJN-G2YjFY-31" vertex="1">
          <mxGeometry width="30" height="30" as="geometry">
            <mxRectangle width="30" height="30" as="alternateBounds" />
          </mxGeometry>
        </mxCell>
        <mxCell id="eOEK0WOAhkfJN-G2YjFY-33" value="INV_DATE" style="shape=partialRectangle;connectable=0;fillColor=none;top=0;left=0;bottom=0;right=0;align=left;spacingLeft=6;overflow=hidden;whiteSpace=wrap;html=1;" parent="eOEK0WOAhkfJN-G2YjFY-31" vertex="1">
          <mxGeometry x="30" width="150" height="30" as="geometry">
            <mxRectangle width="150" height="30" as="alternateBounds" />
          </mxGeometry>
        </mxCell>
        <mxCell id="eOEK0WOAhkfJN-G2YjFY-34" value="" style="shape=tableRow;horizontal=0;startSize=0;swimlaneHead=0;swimlaneBody=0;fillColor=none;collapsible=0;dropTarget=0;points=[[0,0.5],[1,0.5]];portConstraint=eastwest;top=0;left=0;right=0;bottom=0;" parent="eOEK0WOAhkfJN-G2YjFY-27" vertex="1">
          <mxGeometry y="111" width="180" height="30" as="geometry" />
        </mxCell>
        <mxCell id="eOEK0WOAhkfJN-G2YjFY-35" value="" style="shape=partialRectangle;connectable=0;fillColor=none;top=0;left=0;bottom=0;right=0;editable=1;overflow=hidden;whiteSpace=wrap;html=1;" parent="eOEK0WOAhkfJN-G2YjFY-34" vertex="1">
          <mxGeometry width="30" height="30" as="geometry">
            <mxRectangle width="30" height="30" as="alternateBounds" />
          </mxGeometry>
        </mxCell>
        <mxCell id="eOEK0WOAhkfJN-G2YjFY-36" value="INV_TOTAL" style="shape=partialRectangle;connectable=0;fillColor=none;top=0;left=0;bottom=0;right=0;align=left;spacingLeft=6;overflow=hidden;whiteSpace=wrap;html=1;" parent="eOEK0WOAhkfJN-G2YjFY-34" vertex="1">
          <mxGeometry x="30" width="150" height="30" as="geometry">
            <mxRectangle width="150" height="30" as="alternateBounds" />
          </mxGeometry>
        </mxCell>
        <mxCell id="2Y9ygeEOdmRXeHhfdFST-29" value="" style="shape=tableRow;horizontal=0;startSize=0;swimlaneHead=0;swimlaneBody=0;fillColor=none;collapsible=0;dropTarget=0;points=[[0,0.5],[1,0.5]];portConstraint=eastwest;top=0;left=0;right=0;bottom=0;" vertex="1" parent="eOEK0WOAhkfJN-G2YjFY-27">
          <mxGeometry y="141" width="180" height="30" as="geometry" />
        </mxCell>
        <mxCell id="2Y9ygeEOdmRXeHhfdFST-30" value="" style="shape=partialRectangle;connectable=0;fillColor=none;top=0;left=0;bottom=0;right=0;editable=1;overflow=hidden;whiteSpace=wrap;html=1;" vertex="1" parent="2Y9ygeEOdmRXeHhfdFST-29">
          <mxGeometry width="30" height="30" as="geometry">
            <mxRectangle width="30" height="30" as="alternateBounds" />
          </mxGeometry>
        </mxCell>
        <mxCell id="2Y9ygeEOdmRXeHhfdFST-31" value="INV_STATUS" style="shape=partialRectangle;connectable=0;fillColor=none;top=0;left=0;bottom=0;right=0;align=left;spacingLeft=6;overflow=hidden;whiteSpace=wrap;html=1;" vertex="1" parent="2Y9ygeEOdmRXeHhfdFST-29">
          <mxGeometry x="30" width="150" height="30" as="geometry">
            <mxRectangle width="150" height="30" as="alternateBounds" />
          </mxGeometry>
        </mxCell>
        <mxCell id="eOEK0WOAhkfJN-G2YjFY-37" value="" style="shape=tableRow;horizontal=0;startSize=0;swimlaneHead=0;swimlaneBody=0;fillColor=none;collapsible=0;dropTarget=0;points=[[0,0.5],[1,0.5]];portConstraint=eastwest;top=0;left=0;right=0;bottom=0;" parent="eOEK0WOAhkfJN-G2YjFY-27" vertex="1">
          <mxGeometry y="171" width="180" height="30" as="geometry" />
        </mxCell>
        <mxCell id="eOEK0WOAhkfJN-G2YjFY-38" value="" style="shape=partialRectangle;connectable=0;fillColor=none;top=0;left=0;bottom=0;right=0;editable=1;overflow=hidden;whiteSpace=wrap;html=1;" parent="eOEK0WOAhkfJN-G2YjFY-37" vertex="1">
          <mxGeometry width="30" height="30" as="geometry">
            <mxRectangle width="30" height="30" as="alternateBounds" />
          </mxGeometry>
        </mxCell>
        <mxCell id="eOEK0WOAhkfJN-G2YjFY-39" value="PAYMENT_METHOD" style="shape=partialRectangle;connectable=0;fillColor=none;top=0;left=0;bottom=0;right=0;align=left;spacingLeft=6;overflow=hidden;whiteSpace=wrap;html=1;" parent="eOEK0WOAhkfJN-G2YjFY-37" vertex="1">
          <mxGeometry x="30" width="150" height="30" as="geometry">
            <mxRectangle width="150" height="30" as="alternateBounds" />
          </mxGeometry>
        </mxCell>
        <mxCell id="eOEK0WOAhkfJN-G2YjFY-60" value="STOCK" style="shape=table;startSize=30;container=1;collapsible=1;childLayout=tableLayout;fixedRows=1;rowLines=0;fontStyle=1;align=center;resizeLast=1;html=1;" parent="1" vertex="1">
          <mxGeometry x="276" y="192" width="180" height="150" as="geometry" />
        </mxCell>
        <mxCell id="eOEK0WOAhkfJN-G2YjFY-61" value="" style="shape=tableRow;horizontal=0;startSize=0;swimlaneHead=0;swimlaneBody=0;fillColor=none;collapsible=0;dropTarget=0;points=[[0,0.5],[1,0.5]];portConstraint=eastwest;top=0;left=0;right=0;bottom=1;" parent="eOEK0WOAhkfJN-G2YjFY-60" vertex="1">
          <mxGeometry y="30" width="180" height="30" as="geometry" />
        </mxCell>
        <mxCell id="eOEK0WOAhkfJN-G2YjFY-62" value="&lt;div&gt;PK&lt;/div&gt;&lt;div&gt;FK&lt;/div&gt;" style="shape=partialRectangle;connectable=0;fillColor=none;top=0;left=0;bottom=0;right=0;fontStyle=1;overflow=hidden;whiteSpace=wrap;html=1;" parent="eOEK0WOAhkfJN-G2YjFY-61" vertex="1">
          <mxGeometry width="30" height="30" as="geometry">
            <mxRectangle width="30" height="30" as="alternateBounds" />
          </mxGeometry>
        </mxCell>
        <mxCell id="eOEK0WOAhkfJN-G2YjFY-63" value="&lt;div&gt;INV_ID&lt;/div&gt;P_CODE" style="shape=partialRectangle;connectable=0;fillColor=none;top=0;left=0;bottom=0;right=0;align=left;spacingLeft=6;fontStyle=5;overflow=hidden;whiteSpace=wrap;html=1;" parent="eOEK0WOAhkfJN-G2YjFY-61" vertex="1">
          <mxGeometry x="30" width="150" height="30" as="geometry">
            <mxRectangle width="150" height="30" as="alternateBounds" />
          </mxGeometry>
        </mxCell>
        <mxCell id="eOEK0WOAhkfJN-G2YjFY-64" value="" style="shape=tableRow;horizontal=0;startSize=0;swimlaneHead=0;swimlaneBody=0;fillColor=none;collapsible=0;dropTarget=0;points=[[0,0.5],[1,0.5]];portConstraint=eastwest;top=0;left=0;right=0;bottom=0;" parent="eOEK0WOAhkfJN-G2YjFY-60" vertex="1">
          <mxGeometry y="60" width="180" height="30" as="geometry" />
        </mxCell>
        <mxCell id="eOEK0WOAhkfJN-G2YjFY-65" value="" style="shape=partialRectangle;connectable=0;fillColor=none;top=0;left=0;bottom=0;right=0;editable=1;overflow=hidden;whiteSpace=wrap;html=1;" parent="eOEK0WOAhkfJN-G2YjFY-64" vertex="1">
          <mxGeometry width="30" height="30" as="geometry">
            <mxRectangle width="30" height="30" as="alternateBounds" />
          </mxGeometry>
        </mxCell>
        <mxCell id="eOEK0WOAhkfJN-G2YjFY-66" value="QUANTITY" style="shape=partialRectangle;connectable=0;fillColor=none;top=0;left=0;bottom=0;right=0;align=left;spacingLeft=6;overflow=hidden;whiteSpace=wrap;html=1;" parent="eOEK0WOAhkfJN-G2YjFY-64" vertex="1">
          <mxGeometry x="30" width="150" height="30" as="geometry">
            <mxRectangle width="150" height="30" as="alternateBounds" />
          </mxGeometry>
        </mxCell>
        <mxCell id="eOEK0WOAhkfJN-G2YjFY-67" value="" style="shape=tableRow;horizontal=0;startSize=0;swimlaneHead=0;swimlaneBody=0;fillColor=none;collapsible=0;dropTarget=0;points=[[0,0.5],[1,0.5]];portConstraint=eastwest;top=0;left=0;right=0;bottom=0;" parent="eOEK0WOAhkfJN-G2YjFY-60" vertex="1">
          <mxGeometry y="90" width="180" height="30" as="geometry" />
        </mxCell>
        <mxCell id="eOEK0WOAhkfJN-G2YjFY-68" value="" style="shape=partialRectangle;connectable=0;fillColor=none;top=0;left=0;bottom=0;right=0;editable=1;overflow=hidden;whiteSpace=wrap;html=1;" parent="eOEK0WOAhkfJN-G2YjFY-67" vertex="1">
          <mxGeometry width="30" height="30" as="geometry">
            <mxRectangle width="30" height="30" as="alternateBounds" />
          </mxGeometry>
        </mxCell>
        <mxCell id="eOEK0WOAhkfJN-G2YjFY-69" value="LAST_RESTOCK_DATE" style="shape=partialRectangle;connectable=0;fillColor=none;top=0;left=0;bottom=0;right=0;align=left;spacingLeft=6;overflow=hidden;whiteSpace=wrap;html=1;" parent="eOEK0WOAhkfJN-G2YjFY-67" vertex="1">
          <mxGeometry x="30" width="150" height="30" as="geometry">
            <mxRectangle width="150" height="30" as="alternateBounds" />
          </mxGeometry>
        </mxCell>
        <mxCell id="eOEK0WOAhkfJN-G2YjFY-70" value="" style="shape=tableRow;horizontal=0;startSize=0;swimlaneHead=0;swimlaneBody=0;fillColor=none;collapsible=0;dropTarget=0;points=[[0,0.5],[1,0.5]];portConstraint=eastwest;top=0;left=0;right=0;bottom=0;" parent="eOEK0WOAhkfJN-G2YjFY-60" vertex="1">
          <mxGeometry y="120" width="180" height="30" as="geometry" />
        </mxCell>
        <mxCell id="eOEK0WOAhkfJN-G2YjFY-71" value="" style="shape=partialRectangle;connectable=0;fillColor=none;top=0;left=0;bottom=0;right=0;editable=1;overflow=hidden;whiteSpace=wrap;html=1;" parent="eOEK0WOAhkfJN-G2YjFY-70" vertex="1">
          <mxGeometry width="30" height="30" as="geometry">
            <mxRectangle width="30" height="30" as="alternateBounds" />
          </mxGeometry>
        </mxCell>
        <mxCell id="eOEK0WOAhkfJN-G2YjFY-72" value="INV_STOCKOUT" style="shape=partialRectangle;connectable=0;fillColor=none;top=0;left=0;bottom=0;right=0;align=left;spacingLeft=6;overflow=hidden;whiteSpace=wrap;html=1;" parent="eOEK0WOAhkfJN-G2YjFY-70" vertex="1">
          <mxGeometry x="30" width="150" height="30" as="geometry">
            <mxRectangle width="150" height="30" as="alternateBounds" />
          </mxGeometry>
        </mxCell>
        <mxCell id="eOEK0WOAhkfJN-G2YjFY-73" value="Products" style="shape=table;startSize=30;container=1;collapsible=1;childLayout=tableLayout;fixedRows=1;rowLines=0;fontStyle=1;align=center;resizeLast=1;html=1;" parent="1" vertex="1">
          <mxGeometry x="795" y="184" width="173" height="240" as="geometry" />
        </mxCell>
        <mxCell id="eOEK0WOAhkfJN-G2YjFY-74" value="" style="shape=tableRow;horizontal=0;startSize=0;swimlaneHead=0;swimlaneBody=0;fillColor=none;collapsible=0;dropTarget=0;points=[[0,0.5],[1,0.5]];portConstraint=eastwest;top=0;left=0;right=0;bottom=1;" parent="eOEK0WOAhkfJN-G2YjFY-73" vertex="1">
          <mxGeometry y="30" width="173" height="30" as="geometry" />
        </mxCell>
        <mxCell id="eOEK0WOAhkfJN-G2YjFY-75" value="PK" style="shape=partialRectangle;connectable=0;fillColor=none;top=0;left=0;bottom=0;right=0;fontStyle=1;overflow=hidden;whiteSpace=wrap;html=1;" parent="eOEK0WOAhkfJN-G2YjFY-74" vertex="1">
          <mxGeometry width="30" height="30" as="geometry">
            <mxRectangle width="30" height="30" as="alternateBounds" />
          </mxGeometry>
        </mxCell>
        <mxCell id="eOEK0WOAhkfJN-G2YjFY-76" value="P_CODE" style="shape=partialRectangle;connectable=0;fillColor=none;top=0;left=0;bottom=0;right=0;align=left;spacingLeft=6;fontStyle=5;overflow=hidden;whiteSpace=wrap;html=1;" parent="eOEK0WOAhkfJN-G2YjFY-74" vertex="1">
          <mxGeometry x="30" width="143" height="30" as="geometry">
            <mxRectangle width="143" height="30" as="alternateBounds" />
          </mxGeometry>
        </mxCell>
        <mxCell id="eOEK0WOAhkfJN-G2YjFY-77" value="" style="shape=tableRow;horizontal=0;startSize=0;swimlaneHead=0;swimlaneBody=0;fillColor=none;collapsible=0;dropTarget=0;points=[[0,0.5],[1,0.5]];portConstraint=eastwest;top=0;left=0;right=0;bottom=0;" parent="eOEK0WOAhkfJN-G2YjFY-73" vertex="1">
          <mxGeometry y="60" width="173" height="30" as="geometry" />
        </mxCell>
        <mxCell id="eOEK0WOAhkfJN-G2YjFY-78" value="" style="shape=partialRectangle;connectable=0;fillColor=none;top=0;left=0;bottom=0;right=0;editable=1;overflow=hidden;whiteSpace=wrap;html=1;" parent="eOEK0WOAhkfJN-G2YjFY-77" vertex="1">
          <mxGeometry width="30" height="30" as="geometry">
            <mxRectangle width="30" height="30" as="alternateBounds" />
          </mxGeometry>
        </mxCell>
        <mxCell id="eOEK0WOAhkfJN-G2YjFY-79" value="P_NAME" style="shape=partialRectangle;connectable=0;fillColor=none;top=0;left=0;bottom=0;right=0;align=left;spacingLeft=6;overflow=hidden;whiteSpace=wrap;html=1;" parent="eOEK0WOAhkfJN-G2YjFY-77" vertex="1">
          <mxGeometry x="30" width="143" height="30" as="geometry">
            <mxRectangle width="143" height="30" as="alternateBounds" />
          </mxGeometry>
        </mxCell>
        <mxCell id="2Y9ygeEOdmRXeHhfdFST-12" value="" style="shape=tableRow;horizontal=0;startSize=0;swimlaneHead=0;swimlaneBody=0;fillColor=none;collapsible=0;dropTarget=0;points=[[0,0.5],[1,0.5]];portConstraint=eastwest;top=0;left=0;right=0;bottom=0;" vertex="1" parent="eOEK0WOAhkfJN-G2YjFY-73">
          <mxGeometry y="90" width="173" height="30" as="geometry" />
        </mxCell>
        <mxCell id="2Y9ygeEOdmRXeHhfdFST-13" value="" style="shape=partialRectangle;connectable=0;fillColor=none;top=0;left=0;bottom=0;right=0;editable=1;overflow=hidden;whiteSpace=wrap;html=1;" vertex="1" parent="2Y9ygeEOdmRXeHhfdFST-12">
          <mxGeometry width="30" height="30" as="geometry">
            <mxRectangle width="30" height="30" as="alternateBounds" />
          </mxGeometry>
        </mxCell>
        <mxCell id="2Y9ygeEOdmRXeHhfdFST-14" value="P_PRICE" style="shape=partialRectangle;connectable=0;fillColor=none;top=0;left=0;bottom=0;right=0;align=left;spacingLeft=6;overflow=hidden;whiteSpace=wrap;html=1;" vertex="1" parent="2Y9ygeEOdmRXeHhfdFST-12">
          <mxGeometry x="30" width="143" height="30" as="geometry">
            <mxRectangle width="143" height="30" as="alternateBounds" />
          </mxGeometry>
        </mxCell>
        <mxCell id="eOEK0WOAhkfJN-G2YjFY-80" value="" style="shape=tableRow;horizontal=0;startSize=0;swimlaneHead=0;swimlaneBody=0;fillColor=none;collapsible=0;dropTarget=0;points=[[0,0.5],[1,0.5]];portConstraint=eastwest;top=0;left=0;right=0;bottom=0;" parent="eOEK0WOAhkfJN-G2YjFY-73" vertex="1">
          <mxGeometry y="120" width="173" height="30" as="geometry" />
        </mxCell>
        <mxCell id="eOEK0WOAhkfJN-G2YjFY-81" value="" style="shape=partialRectangle;connectable=0;fillColor=none;top=0;left=0;bottom=0;right=0;editable=1;overflow=hidden;whiteSpace=wrap;html=1;" parent="eOEK0WOAhkfJN-G2YjFY-80" vertex="1">
          <mxGeometry width="30" height="30" as="geometry">
            <mxRectangle width="30" height="30" as="alternateBounds" />
          </mxGeometry>
        </mxCell>
        <mxCell id="eOEK0WOAhkfJN-G2YjFY-82" value="P_DESCRIPTION" style="shape=partialRectangle;connectable=0;fillColor=none;top=0;left=0;bottom=0;right=0;align=left;spacingLeft=6;overflow=hidden;whiteSpace=wrap;html=1;" parent="eOEK0WOAhkfJN-G2YjFY-80" vertex="1">
          <mxGeometry x="30" width="143" height="30" as="geometry">
            <mxRectangle width="143" height="30" as="alternateBounds" />
          </mxGeometry>
        </mxCell>
        <mxCell id="eOEK0WOAhkfJN-G2YjFY-83" value="" style="shape=tableRow;horizontal=0;startSize=0;swimlaneHead=0;swimlaneBody=0;fillColor=none;collapsible=0;dropTarget=0;points=[[0,0.5],[1,0.5]];portConstraint=eastwest;top=0;left=0;right=0;bottom=0;" parent="eOEK0WOAhkfJN-G2YjFY-73" vertex="1">
          <mxGeometry y="150" width="173" height="30" as="geometry" />
        </mxCell>
        <mxCell id="eOEK0WOAhkfJN-G2YjFY-84" value="FK1" style="shape=partialRectangle;connectable=0;fillColor=none;top=0;left=0;bottom=0;right=0;editable=1;overflow=hidden;whiteSpace=wrap;html=1;" parent="eOEK0WOAhkfJN-G2YjFY-83" vertex="1">
          <mxGeometry width="30" height="30" as="geometry">
            <mxRectangle width="30" height="30" as="alternateBounds" />
          </mxGeometry>
        </mxCell>
        <mxCell id="eOEK0WOAhkfJN-G2YjFY-85" value="V_ID" style="shape=partialRectangle;connectable=0;fillColor=none;top=0;left=0;bottom=0;right=0;align=left;spacingLeft=6;overflow=hidden;whiteSpace=wrap;html=1;" parent="eOEK0WOAhkfJN-G2YjFY-83" vertex="1">
          <mxGeometry x="30" width="143" height="30" as="geometry">
            <mxRectangle width="143" height="30" as="alternateBounds" />
          </mxGeometry>
        </mxCell>
        <mxCell id="UilIoNY0k18aBem4BEjZ-129" style="shape=tableRow;horizontal=0;startSize=0;swimlaneHead=0;swimlaneBody=0;fillColor=none;collapsible=0;dropTarget=0;points=[[0,0.5],[1,0.5]];portConstraint=eastwest;top=0;left=0;right=0;bottom=0;" parent="eOEK0WOAhkfJN-G2YjFY-73" vertex="1">
          <mxGeometry y="180" width="173" height="30" as="geometry" />
        </mxCell>
        <mxCell id="UilIoNY0k18aBem4BEjZ-130" style="shape=partialRectangle;connectable=0;fillColor=none;top=0;left=0;bottom=0;right=0;editable=1;overflow=hidden;whiteSpace=wrap;html=1;" parent="UilIoNY0k18aBem4BEjZ-129" vertex="1">
          <mxGeometry width="30" height="30" as="geometry">
            <mxRectangle width="30" height="30" as="alternateBounds" />
          </mxGeometry>
        </mxCell>
        <mxCell id="UilIoNY0k18aBem4BEjZ-131" value="P_TYPE" style="shape=partialRectangle;connectable=0;fillColor=none;top=0;left=0;bottom=0;right=0;align=left;spacingLeft=6;overflow=hidden;whiteSpace=wrap;html=1;" parent="UilIoNY0k18aBem4BEjZ-129" vertex="1">
          <mxGeometry x="30" width="143" height="30" as="geometry">
            <mxRectangle width="143" height="30" as="alternateBounds" />
          </mxGeometry>
        </mxCell>
        <mxCell id="UilIoNY0k18aBem4BEjZ-132" style="shape=tableRow;horizontal=0;startSize=0;swimlaneHead=0;swimlaneBody=0;fillColor=none;collapsible=0;dropTarget=0;points=[[0,0.5],[1,0.5]];portConstraint=eastwest;top=0;left=0;right=0;bottom=0;" parent="eOEK0WOAhkfJN-G2YjFY-73" vertex="1">
          <mxGeometry y="210" width="173" height="30" as="geometry" />
        </mxCell>
        <mxCell id="UilIoNY0k18aBem4BEjZ-133" style="shape=partialRectangle;connectable=0;fillColor=none;top=0;left=0;bottom=0;right=0;editable=1;overflow=hidden;whiteSpace=wrap;html=1;" parent="UilIoNY0k18aBem4BEjZ-132" vertex="1">
          <mxGeometry width="30" height="30" as="geometry">
            <mxRectangle width="30" height="30" as="alternateBounds" />
          </mxGeometry>
        </mxCell>
        <mxCell id="UilIoNY0k18aBem4BEjZ-134" value="" style="shape=partialRectangle;connectable=0;fillColor=none;top=0;left=0;bottom=0;right=0;align=left;spacingLeft=6;overflow=hidden;whiteSpace=wrap;html=1;" parent="UilIoNY0k18aBem4BEjZ-132" vertex="1">
          <mxGeometry x="30" width="143" height="30" as="geometry">
            <mxRectangle width="143" height="30" as="alternateBounds" />
          </mxGeometry>
        </mxCell>
        <mxCell id="eOEK0WOAhkfJN-G2YjFY-86" value="Plants" style="shape=table;startSize=30;container=1;collapsible=1;childLayout=tableLayout;fixedRows=1;rowLines=0;fontStyle=1;align=center;resizeLast=1;html=1;" parent="1" vertex="1">
          <mxGeometry x="428" y="627" width="180" height="210" as="geometry" />
        </mxCell>
        <mxCell id="eOEK0WOAhkfJN-G2YjFY-87" value="" style="shape=tableRow;horizontal=0;startSize=0;swimlaneHead=0;swimlaneBody=0;fillColor=none;collapsible=0;dropTarget=0;points=[[0,0.5],[1,0.5]];portConstraint=eastwest;top=0;left=0;right=0;bottom=1;" parent="eOEK0WOAhkfJN-G2YjFY-86" vertex="1">
          <mxGeometry y="30" width="180" height="30" as="geometry" />
        </mxCell>
        <mxCell id="eOEK0WOAhkfJN-G2YjFY-88" value="PK, FK1" style="shape=partialRectangle;connectable=0;fillColor=none;top=0;left=0;bottom=0;right=0;fontStyle=1;overflow=hidden;whiteSpace=wrap;html=1;" parent="eOEK0WOAhkfJN-G2YjFY-87" vertex="1">
          <mxGeometry width="30" height="30" as="geometry">
            <mxRectangle width="30" height="30" as="alternateBounds" />
          </mxGeometry>
        </mxCell>
        <mxCell id="eOEK0WOAhkfJN-G2YjFY-89" value="P_CODE" style="shape=partialRectangle;connectable=0;fillColor=none;top=0;left=0;bottom=0;right=0;align=left;spacingLeft=6;fontStyle=5;overflow=hidden;whiteSpace=wrap;html=1;" parent="eOEK0WOAhkfJN-G2YjFY-87" vertex="1">
          <mxGeometry x="30" width="150" height="30" as="geometry">
            <mxRectangle width="150" height="30" as="alternateBounds" />
          </mxGeometry>
        </mxCell>
        <mxCell id="eOEK0WOAhkfJN-G2YjFY-90" value="" style="shape=tableRow;horizontal=0;startSize=0;swimlaneHead=0;swimlaneBody=0;fillColor=none;collapsible=0;dropTarget=0;points=[[0,0.5],[1,0.5]];portConstraint=eastwest;top=0;left=0;right=0;bottom=0;" parent="eOEK0WOAhkfJN-G2YjFY-86" vertex="1">
          <mxGeometry y="60" width="180" height="30" as="geometry" />
        </mxCell>
        <mxCell id="eOEK0WOAhkfJN-G2YjFY-91" value="" style="shape=partialRectangle;connectable=0;fillColor=none;top=0;left=0;bottom=0;right=0;editable=1;overflow=hidden;whiteSpace=wrap;html=1;" parent="eOEK0WOAhkfJN-G2YjFY-90" vertex="1">
          <mxGeometry width="30" height="30" as="geometry">
            <mxRectangle width="30" height="30" as="alternateBounds" />
          </mxGeometry>
        </mxCell>
        <mxCell id="eOEK0WOAhkfJN-G2YjFY-92" value="PLANT_SPECIES" style="shape=partialRectangle;connectable=0;fillColor=none;top=0;left=0;bottom=0;right=0;align=left;spacingLeft=6;overflow=hidden;whiteSpace=wrap;html=1;" parent="eOEK0WOAhkfJN-G2YjFY-90" vertex="1">
          <mxGeometry x="30" width="150" height="30" as="geometry">
            <mxRectangle width="150" height="30" as="alternateBounds" />
          </mxGeometry>
        </mxCell>
        <mxCell id="eOEK0WOAhkfJN-G2YjFY-93" value="" style="shape=tableRow;horizontal=0;startSize=0;swimlaneHead=0;swimlaneBody=0;fillColor=none;collapsible=0;dropTarget=0;points=[[0,0.5],[1,0.5]];portConstraint=eastwest;top=0;left=0;right=0;bottom=0;" parent="eOEK0WOAhkfJN-G2YjFY-86" vertex="1">
          <mxGeometry y="90" width="180" height="30" as="geometry" />
        </mxCell>
        <mxCell id="eOEK0WOAhkfJN-G2YjFY-94" value="" style="shape=partialRectangle;connectable=0;fillColor=none;top=0;left=0;bottom=0;right=0;editable=1;overflow=hidden;whiteSpace=wrap;html=1;" parent="eOEK0WOAhkfJN-G2YjFY-93" vertex="1">
          <mxGeometry width="30" height="30" as="geometry">
            <mxRectangle width="30" height="30" as="alternateBounds" />
          </mxGeometry>
        </mxCell>
        <mxCell id="eOEK0WOAhkfJN-G2YjFY-95" value="PLANT_DESCRIPTION" style="shape=partialRectangle;connectable=0;fillColor=none;top=0;left=0;bottom=0;right=0;align=left;spacingLeft=6;overflow=hidden;whiteSpace=wrap;html=1;" parent="eOEK0WOAhkfJN-G2YjFY-93" vertex="1">
          <mxGeometry x="30" width="150" height="30" as="geometry">
            <mxRectangle width="150" height="30" as="alternateBounds" />
          </mxGeometry>
        </mxCell>
        <mxCell id="aINcYvj6sDw_-wvrAH8N-4" value="" style="shape=tableRow;horizontal=0;startSize=0;swimlaneHead=0;swimlaneBody=0;fillColor=none;collapsible=0;dropTarget=0;points=[[0,0.5],[1,0.5]];portConstraint=eastwest;top=0;left=0;right=0;bottom=0;" parent="eOEK0WOAhkfJN-G2YjFY-86" vertex="1">
          <mxGeometry y="120" width="180" height="30" as="geometry" />
        </mxCell>
        <mxCell id="aINcYvj6sDw_-wvrAH8N-5" value="" style="shape=partialRectangle;connectable=0;fillColor=none;top=0;left=0;bottom=0;right=0;editable=1;overflow=hidden;whiteSpace=wrap;html=1;" parent="aINcYvj6sDw_-wvrAH8N-4" vertex="1">
          <mxGeometry width="30" height="30" as="geometry">
            <mxRectangle width="30" height="30" as="alternateBounds" />
          </mxGeometry>
        </mxCell>
        <mxCell id="aINcYvj6sDw_-wvrAH8N-6" value="PLANT_SIZE" style="shape=partialRectangle;connectable=0;fillColor=none;top=0;left=0;bottom=0;right=0;align=left;spacingLeft=6;overflow=hidden;whiteSpace=wrap;html=1;" parent="aINcYvj6sDw_-wvrAH8N-4" vertex="1">
          <mxGeometry x="30" width="150" height="30" as="geometry">
            <mxRectangle width="150" height="30" as="alternateBounds" />
          </mxGeometry>
        </mxCell>
        <mxCell id="eOEK0WOAhkfJN-G2YjFY-96" value="" style="shape=tableRow;horizontal=0;startSize=0;swimlaneHead=0;swimlaneBody=0;fillColor=none;collapsible=0;dropTarget=0;points=[[0,0.5],[1,0.5]];portConstraint=eastwest;top=0;left=0;right=0;bottom=0;" parent="eOEK0WOAhkfJN-G2YjFY-86" vertex="1">
          <mxGeometry y="150" width="180" height="30" as="geometry" />
        </mxCell>
        <mxCell id="eOEK0WOAhkfJN-G2YjFY-97" value="" style="shape=partialRectangle;connectable=0;fillColor=none;top=0;left=0;bottom=0;right=0;editable=1;overflow=hidden;whiteSpace=wrap;html=1;" parent="eOEK0WOAhkfJN-G2YjFY-96" vertex="1">
          <mxGeometry width="30" height="30" as="geometry">
            <mxRectangle width="30" height="30" as="alternateBounds" />
          </mxGeometry>
        </mxCell>
        <mxCell id="eOEK0WOAhkfJN-G2YjFY-98" value="PLANT_REGION" style="shape=partialRectangle;connectable=0;fillColor=none;top=0;left=0;bottom=0;right=0;align=left;spacingLeft=6;overflow=hidden;whiteSpace=wrap;html=1;" parent="eOEK0WOAhkfJN-G2YjFY-96" vertex="1">
          <mxGeometry x="30" width="150" height="30" as="geometry">
            <mxRectangle width="150" height="30" as="alternateBounds" />
          </mxGeometry>
        </mxCell>
        <mxCell id="UilIoNY0k18aBem4BEjZ-114" style="shape=tableRow;horizontal=0;startSize=0;swimlaneHead=0;swimlaneBody=0;fillColor=none;collapsible=0;dropTarget=0;points=[[0,0.5],[1,0.5]];portConstraint=eastwest;top=0;left=0;right=0;bottom=0;" parent="eOEK0WOAhkfJN-G2YjFY-86" vertex="1">
          <mxGeometry y="180" width="180" height="30" as="geometry" />
        </mxCell>
        <mxCell id="UilIoNY0k18aBem4BEjZ-115" style="shape=partialRectangle;connectable=0;fillColor=none;top=0;left=0;bottom=0;right=0;editable=1;overflow=hidden;whiteSpace=wrap;html=1;" parent="UilIoNY0k18aBem4BEjZ-114" vertex="1">
          <mxGeometry width="30" height="30" as="geometry">
            <mxRectangle width="30" height="30" as="alternateBounds" />
          </mxGeometry>
        </mxCell>
        <mxCell id="UilIoNY0k18aBem4BEjZ-116" value="PLANT_WATER_REQ" style="shape=partialRectangle;connectable=0;fillColor=none;top=0;left=0;bottom=0;right=0;align=left;spacingLeft=6;overflow=hidden;whiteSpace=wrap;html=1;" parent="UilIoNY0k18aBem4BEjZ-114" vertex="1">
          <mxGeometry x="30" width="150" height="30" as="geometry">
            <mxRectangle width="150" height="30" as="alternateBounds" />
          </mxGeometry>
        </mxCell>
        <mxCell id="eOEK0WOAhkfJN-G2YjFY-99" value="Subscription" style="shape=table;startSize=30;container=1;collapsible=1;childLayout=tableLayout;fixedRows=1;rowLines=0;fontStyle=1;align=center;resizeLast=1;html=1;" parent="1" vertex="1">
          <mxGeometry x="634" y="631" width="180" height="210" as="geometry" />
        </mxCell>
        <mxCell id="eOEK0WOAhkfJN-G2YjFY-100" value="" style="shape=tableRow;horizontal=0;startSize=0;swimlaneHead=0;swimlaneBody=0;fillColor=none;collapsible=0;dropTarget=0;points=[[0,0.5],[1,0.5]];portConstraint=eastwest;top=0;left=0;right=0;bottom=1;" parent="eOEK0WOAhkfJN-G2YjFY-99" vertex="1">
          <mxGeometry y="30" width="180" height="30" as="geometry" />
        </mxCell>
        <mxCell id="eOEK0WOAhkfJN-G2YjFY-101" value="PK, FK1" style="shape=partialRectangle;connectable=0;fillColor=none;top=0;left=0;bottom=0;right=0;fontStyle=1;overflow=hidden;whiteSpace=wrap;html=1;" parent="eOEK0WOAhkfJN-G2YjFY-100" vertex="1">
          <mxGeometry width="30" height="30" as="geometry">
            <mxRectangle width="30" height="30" as="alternateBounds" />
          </mxGeometry>
        </mxCell>
        <mxCell id="eOEK0WOAhkfJN-G2YjFY-102" value="P_CODE" style="shape=partialRectangle;connectable=0;fillColor=none;top=0;left=0;bottom=0;right=0;align=left;spacingLeft=6;fontStyle=5;overflow=hidden;whiteSpace=wrap;html=1;" parent="eOEK0WOAhkfJN-G2YjFY-100" vertex="1">
          <mxGeometry x="30" width="150" height="30" as="geometry">
            <mxRectangle width="150" height="30" as="alternateBounds" />
          </mxGeometry>
        </mxCell>
        <mxCell id="eOEK0WOAhkfJN-G2YjFY-103" value="" style="shape=tableRow;horizontal=0;startSize=0;swimlaneHead=0;swimlaneBody=0;fillColor=none;collapsible=0;dropTarget=0;points=[[0,0.5],[1,0.5]];portConstraint=eastwest;top=0;left=0;right=0;bottom=0;" parent="eOEK0WOAhkfJN-G2YjFY-99" vertex="1">
          <mxGeometry y="60" width="180" height="30" as="geometry" />
        </mxCell>
        <mxCell id="eOEK0WOAhkfJN-G2YjFY-104" value="" style="shape=partialRectangle;connectable=0;fillColor=none;top=0;left=0;bottom=0;right=0;editable=1;overflow=hidden;whiteSpace=wrap;html=1;" parent="eOEK0WOAhkfJN-G2YjFY-103" vertex="1">
          <mxGeometry width="30" height="30" as="geometry">
            <mxRectangle width="30" height="30" as="alternateBounds" />
          </mxGeometry>
        </mxCell>
        <mxCell id="eOEK0WOAhkfJN-G2YjFY-105" value="SUB_TYPE" style="shape=partialRectangle;connectable=0;fillColor=none;top=0;left=0;bottom=0;right=0;align=left;spacingLeft=6;overflow=hidden;whiteSpace=wrap;html=1;" parent="eOEK0WOAhkfJN-G2YjFY-103" vertex="1">
          <mxGeometry x="30" width="150" height="30" as="geometry">
            <mxRectangle width="150" height="30" as="alternateBounds" />
          </mxGeometry>
        </mxCell>
        <mxCell id="eOEK0WOAhkfJN-G2YjFY-106" value="" style="shape=tableRow;horizontal=0;startSize=0;swimlaneHead=0;swimlaneBody=0;fillColor=none;collapsible=0;dropTarget=0;points=[[0,0.5],[1,0.5]];portConstraint=eastwest;top=0;left=0;right=0;bottom=0;" parent="eOEK0WOAhkfJN-G2YjFY-99" vertex="1">
          <mxGeometry y="90" width="180" height="30" as="geometry" />
        </mxCell>
        <mxCell id="eOEK0WOAhkfJN-G2YjFY-107" value="" style="shape=partialRectangle;connectable=0;fillColor=none;top=0;left=0;bottom=0;right=0;editable=1;overflow=hidden;whiteSpace=wrap;html=1;" parent="eOEK0WOAhkfJN-G2YjFY-106" vertex="1">
          <mxGeometry width="30" height="30" as="geometry">
            <mxRectangle width="30" height="30" as="alternateBounds" />
          </mxGeometry>
        </mxCell>
        <mxCell id="eOEK0WOAhkfJN-G2YjFY-108" value="SUB_PERIOD" style="shape=partialRectangle;connectable=0;fillColor=none;top=0;left=0;bottom=0;right=0;align=left;spacingLeft=6;overflow=hidden;whiteSpace=wrap;html=1;" parent="eOEK0WOAhkfJN-G2YjFY-106" vertex="1">
          <mxGeometry x="30" width="150" height="30" as="geometry">
            <mxRectangle width="150" height="30" as="alternateBounds" />
          </mxGeometry>
        </mxCell>
        <mxCell id="eOEK0WOAhkfJN-G2YjFY-109" value="" style="shape=tableRow;horizontal=0;startSize=0;swimlaneHead=0;swimlaneBody=0;fillColor=none;collapsible=0;dropTarget=0;points=[[0,0.5],[1,0.5]];portConstraint=eastwest;top=0;left=0;right=0;bottom=0;" parent="eOEK0WOAhkfJN-G2YjFY-99" vertex="1">
          <mxGeometry y="120" width="180" height="30" as="geometry" />
        </mxCell>
        <mxCell id="eOEK0WOAhkfJN-G2YjFY-110" value="" style="shape=partialRectangle;connectable=0;fillColor=none;top=0;left=0;bottom=0;right=0;editable=1;overflow=hidden;whiteSpace=wrap;html=1;" parent="eOEK0WOAhkfJN-G2YjFY-109" vertex="1">
          <mxGeometry width="30" height="30" as="geometry">
            <mxRectangle width="30" height="30" as="alternateBounds" />
          </mxGeometry>
        </mxCell>
        <mxCell id="eOEK0WOAhkfJN-G2YjFY-111" value="SUB_COST" style="shape=partialRectangle;connectable=0;fillColor=none;top=0;left=0;bottom=0;right=0;align=left;spacingLeft=6;overflow=hidden;whiteSpace=wrap;html=1;" parent="eOEK0WOAhkfJN-G2YjFY-109" vertex="1">
          <mxGeometry x="30" width="150" height="30" as="geometry">
            <mxRectangle width="150" height="30" as="alternateBounds" />
          </mxGeometry>
        </mxCell>
        <mxCell id="UilIoNY0k18aBem4BEjZ-108" style="shape=tableRow;horizontal=0;startSize=0;swimlaneHead=0;swimlaneBody=0;fillColor=none;collapsible=0;dropTarget=0;points=[[0,0.5],[1,0.5]];portConstraint=eastwest;top=0;left=0;right=0;bottom=0;" parent="eOEK0WOAhkfJN-G2YjFY-99" vertex="1">
          <mxGeometry y="150" width="180" height="30" as="geometry" />
        </mxCell>
        <mxCell id="UilIoNY0k18aBem4BEjZ-109" style="shape=partialRectangle;connectable=0;fillColor=none;top=0;left=0;bottom=0;right=0;editable=1;overflow=hidden;whiteSpace=wrap;html=1;" parent="UilIoNY0k18aBem4BEjZ-108" vertex="1">
          <mxGeometry width="30" height="30" as="geometry">
            <mxRectangle width="30" height="30" as="alternateBounds" />
          </mxGeometry>
        </mxCell>
        <mxCell id="UilIoNY0k18aBem4BEjZ-110" value="SUB_LOCATION" style="shape=partialRectangle;connectable=0;fillColor=none;top=0;left=0;bottom=0;right=0;align=left;spacingLeft=6;overflow=hidden;whiteSpace=wrap;html=1;" parent="UilIoNY0k18aBem4BEjZ-108" vertex="1">
          <mxGeometry x="30" width="150" height="30" as="geometry">
            <mxRectangle width="150" height="30" as="alternateBounds" />
          </mxGeometry>
        </mxCell>
        <mxCell id="UilIoNY0k18aBem4BEjZ-111" style="shape=tableRow;horizontal=0;startSize=0;swimlaneHead=0;swimlaneBody=0;fillColor=none;collapsible=0;dropTarget=0;points=[[0,0.5],[1,0.5]];portConstraint=eastwest;top=0;left=0;right=0;bottom=0;" parent="eOEK0WOAhkfJN-G2YjFY-99" vertex="1">
          <mxGeometry y="180" width="180" height="30" as="geometry" />
        </mxCell>
        <mxCell id="UilIoNY0k18aBem4BEjZ-112" style="shape=partialRectangle;connectable=0;fillColor=none;top=0;left=0;bottom=0;right=0;editable=1;overflow=hidden;whiteSpace=wrap;html=1;" parent="UilIoNY0k18aBem4BEjZ-111" vertex="1">
          <mxGeometry width="30" height="30" as="geometry">
            <mxRectangle width="30" height="30" as="alternateBounds" />
          </mxGeometry>
        </mxCell>
        <mxCell id="UilIoNY0k18aBem4BEjZ-113" value="SUB" style="shape=partialRectangle;connectable=0;fillColor=none;top=0;left=0;bottom=0;right=0;align=left;spacingLeft=6;overflow=hidden;whiteSpace=wrap;html=1;" parent="UilIoNY0k18aBem4BEjZ-111" vertex="1">
          <mxGeometry x="30" width="150" height="30" as="geometry">
            <mxRectangle width="150" height="30" as="alternateBounds" />
          </mxGeometry>
        </mxCell>
        <mxCell id="eOEK0WOAhkfJN-G2YjFY-112" value="Materials" style="shape=table;startSize=30;container=1;collapsible=1;childLayout=tableLayout;fixedRows=1;rowLines=0;fontStyle=1;align=center;resizeLast=1;html=1;" parent="1" vertex="1">
          <mxGeometry x="837" y="631" width="180" height="150" as="geometry" />
        </mxCell>
        <mxCell id="eOEK0WOAhkfJN-G2YjFY-113" value="" style="shape=tableRow;horizontal=0;startSize=0;swimlaneHead=0;swimlaneBody=0;fillColor=none;collapsible=0;dropTarget=0;points=[[0,0.5],[1,0.5]];portConstraint=eastwest;top=0;left=0;right=0;bottom=1;" parent="eOEK0WOAhkfJN-G2YjFY-112" vertex="1">
          <mxGeometry y="30" width="180" height="30" as="geometry" />
        </mxCell>
        <mxCell id="eOEK0WOAhkfJN-G2YjFY-114" value="PK, FK1" style="shape=partialRectangle;connectable=0;fillColor=none;top=0;left=0;bottom=0;right=0;fontStyle=1;overflow=hidden;whiteSpace=wrap;html=1;" parent="eOEK0WOAhkfJN-G2YjFY-113" vertex="1">
          <mxGeometry width="30" height="30" as="geometry">
            <mxRectangle width="30" height="30" as="alternateBounds" />
          </mxGeometry>
        </mxCell>
        <mxCell id="eOEK0WOAhkfJN-G2YjFY-115" value="P_CODE" style="shape=partialRectangle;connectable=0;fillColor=none;top=0;left=0;bottom=0;right=0;align=left;spacingLeft=6;fontStyle=5;overflow=hidden;whiteSpace=wrap;html=1;" parent="eOEK0WOAhkfJN-G2YjFY-113" vertex="1">
          <mxGeometry x="30" width="150" height="30" as="geometry">
            <mxRectangle width="150" height="30" as="alternateBounds" />
          </mxGeometry>
        </mxCell>
        <mxCell id="eOEK0WOAhkfJN-G2YjFY-116" value="" style="shape=tableRow;horizontal=0;startSize=0;swimlaneHead=0;swimlaneBody=0;fillColor=none;collapsible=0;dropTarget=0;points=[[0,0.5],[1,0.5]];portConstraint=eastwest;top=0;left=0;right=0;bottom=0;" parent="eOEK0WOAhkfJN-G2YjFY-112" vertex="1">
          <mxGeometry y="60" width="180" height="30" as="geometry" />
        </mxCell>
        <mxCell id="eOEK0WOAhkfJN-G2YjFY-117" value="" style="shape=partialRectangle;connectable=0;fillColor=none;top=0;left=0;bottom=0;right=0;editable=1;overflow=hidden;whiteSpace=wrap;html=1;" parent="eOEK0WOAhkfJN-G2YjFY-116" vertex="1">
          <mxGeometry width="30" height="30" as="geometry">
            <mxRectangle width="30" height="30" as="alternateBounds" />
          </mxGeometry>
        </mxCell>
        <mxCell id="eOEK0WOAhkfJN-G2YjFY-118" value="Mat_weight" style="shape=partialRectangle;connectable=0;fillColor=none;top=0;left=0;bottom=0;right=0;align=left;spacingLeft=6;overflow=hidden;whiteSpace=wrap;html=1;" parent="eOEK0WOAhkfJN-G2YjFY-116" vertex="1">
          <mxGeometry x="30" width="150" height="30" as="geometry">
            <mxRectangle width="150" height="30" as="alternateBounds" />
          </mxGeometry>
        </mxCell>
        <mxCell id="eOEK0WOAhkfJN-G2YjFY-119" value="" style="shape=tableRow;horizontal=0;startSize=0;swimlaneHead=0;swimlaneBody=0;fillColor=none;collapsible=0;dropTarget=0;points=[[0,0.5],[1,0.5]];portConstraint=eastwest;top=0;left=0;right=0;bottom=0;" parent="eOEK0WOAhkfJN-G2YjFY-112" vertex="1">
          <mxGeometry y="90" width="180" height="30" as="geometry" />
        </mxCell>
        <mxCell id="eOEK0WOAhkfJN-G2YjFY-120" value="" style="shape=partialRectangle;connectable=0;fillColor=none;top=0;left=0;bottom=0;right=0;editable=1;overflow=hidden;whiteSpace=wrap;html=1;" parent="eOEK0WOAhkfJN-G2YjFY-119" vertex="1">
          <mxGeometry width="30" height="30" as="geometry">
            <mxRectangle width="30" height="30" as="alternateBounds" />
          </mxGeometry>
        </mxCell>
        <mxCell id="eOEK0WOAhkfJN-G2YjFY-121" value="Mat_size" style="shape=partialRectangle;connectable=0;fillColor=none;top=0;left=0;bottom=0;right=0;align=left;spacingLeft=6;overflow=hidden;whiteSpace=wrap;html=1;" parent="eOEK0WOAhkfJN-G2YjFY-119" vertex="1">
          <mxGeometry x="30" width="150" height="30" as="geometry">
            <mxRectangle width="150" height="30" as="alternateBounds" />
          </mxGeometry>
        </mxCell>
        <mxCell id="eOEK0WOAhkfJN-G2YjFY-122" value="" style="shape=tableRow;horizontal=0;startSize=0;swimlaneHead=0;swimlaneBody=0;fillColor=none;collapsible=0;dropTarget=0;points=[[0,0.5],[1,0.5]];portConstraint=eastwest;top=0;left=0;right=0;bottom=0;" parent="eOEK0WOAhkfJN-G2YjFY-112" vertex="1">
          <mxGeometry y="120" width="180" height="30" as="geometry" />
        </mxCell>
        <mxCell id="eOEK0WOAhkfJN-G2YjFY-123" value="" style="shape=partialRectangle;connectable=0;fillColor=none;top=0;left=0;bottom=0;right=0;editable=1;overflow=hidden;whiteSpace=wrap;html=1;" parent="eOEK0WOAhkfJN-G2YjFY-122" vertex="1">
          <mxGeometry width="30" height="30" as="geometry">
            <mxRectangle width="30" height="30" as="alternateBounds" />
          </mxGeometry>
        </mxCell>
        <mxCell id="eOEK0WOAhkfJN-G2YjFY-124" value="Mat_type." style="shape=partialRectangle;connectable=0;fillColor=none;top=0;left=0;bottom=0;right=0;align=left;spacingLeft=6;overflow=hidden;whiteSpace=wrap;html=1;" parent="eOEK0WOAhkfJN-G2YjFY-122" vertex="1">
          <mxGeometry x="30" width="150" height="30" as="geometry">
            <mxRectangle width="150" height="30" as="alternateBounds" />
          </mxGeometry>
        </mxCell>
        <mxCell id="jwnKpy20SETWDSbWmU1L-2" value="" style="edgeStyle=entityRelationEdgeStyle;fontSize=12;html=1;endArrow=ERzeroToMany;startArrow=ERmandOne;rounded=0;exitX=0.025;exitY=-0.109;exitDx=0;exitDy=0;exitPerimeter=0;entryX=1;entryY=0.5;entryDx=0;entryDy=0;" parent="1" source="UilIoNY0k18aBem4BEjZ-25" target="eOEK0WOAhkfJN-G2YjFY-37" edge="1">
          <mxGeometry width="100" height="100" relative="1" as="geometry">
            <mxPoint x="256.68000000000006" y="-30.000000000000007" as="sourcePoint" />
            <mxPoint x="-66" y="33.99" as="targetPoint" />
          </mxGeometry>
        </mxCell>
        <mxCell id="Z-oqX0h67xoIn-v5jEL7-5" value="" style="edgeStyle=entityRelationEdgeStyle;fontSize=12;html=1;endArrow=ERzeroToMany;startArrow=ERmandOne;rounded=0;entryX=0;entryY=0.25;entryDx=0;entryDy=0;exitX=0.961;exitY=0.75;exitDx=0;exitDy=0;exitPerimeter=0;" parent="1" source="UilIoNY0k18aBem4BEjZ-2" target="eOEK0WOAhkfJN-G2YjFY-60" edge="1">
          <mxGeometry width="100" height="100" relative="1" as="geometry">
            <mxPoint x="108" y="112" as="sourcePoint" />
            <mxPoint x="304.0000000000002" y="301.42" as="targetPoint" />
          </mxGeometry>
        </mxCell>
        <mxCell id="Zf1kGV9Rrk3U4kaSFhwW-1" value="O" style="ellipse;whiteSpace=wrap;html=1;aspect=fixed;" parent="1" vertex="1">
          <mxGeometry x="857" y="459" width="40" height="40" as="geometry" />
        </mxCell>
        <mxCell id="Zf1kGV9Rrk3U4kaSFhwW-2" value="" style="endArrow=none;html=1;rounded=0;fontSize=12;startSize=8;endSize=8;curved=1;exitX=0.5;exitY=0;exitDx=0;exitDy=0;entryX=0.514;entryY=0.929;entryDx=0;entryDy=0;entryPerimeter=0;" parent="1" source="Zf1kGV9Rrk3U4kaSFhwW-1" target="UilIoNY0k18aBem4BEjZ-132" edge="1">
          <mxGeometry width="50" height="50" relative="1" as="geometry">
            <mxPoint x="481" y="513" as="sourcePoint" />
            <mxPoint x="584" y="314" as="targetPoint" />
            <Array as="points" />
          </mxGeometry>
        </mxCell>
        <mxCell id="Zf1kGV9Rrk3U4kaSFhwW-4" value="" style="endArrow=none;html=1;rounded=0;fontSize=12;startSize=8;endSize=8;curved=1;" parent="1" edge="1">
          <mxGeometry width="50" height="50" relative="1" as="geometry">
            <mxPoint x="835" y="503" as="sourcePoint" />
            <mxPoint x="919" y="503" as="targetPoint" />
          </mxGeometry>
        </mxCell>
        <mxCell id="Zf1kGV9Rrk3U4kaSFhwW-5" value="" style="endArrow=none;html=1;rounded=0;fontSize=12;startSize=8;endSize=8;curved=1;" parent="1" edge="1">
          <mxGeometry width="50" height="50" relative="1" as="geometry">
            <mxPoint x="838" y="514" as="sourcePoint" />
            <mxPoint x="922" y="514" as="targetPoint" />
          </mxGeometry>
        </mxCell>
        <mxCell id="Zf1kGV9Rrk3U4kaSFhwW-6" value="" style="endArrow=none;html=1;rounded=0;fontSize=12;startSize=8;endSize=8;curved=1;entryX=0.5;entryY=1;entryDx=0;entryDy=0;exitX=0.5;exitY=0;exitDx=0;exitDy=0;" parent="1" source="eOEK0WOAhkfJN-G2YjFY-112" target="Zf1kGV9Rrk3U4kaSFhwW-1" edge="1">
          <mxGeometry width="50" height="50" relative="1" as="geometry">
            <mxPoint x="339" y="384" as="sourcePoint" />
            <mxPoint x="389" y="334" as="targetPoint" />
          </mxGeometry>
        </mxCell>
        <mxCell id="Zf1kGV9Rrk3U4kaSFhwW-7" value="" style="endArrow=none;html=1;rounded=0;fontSize=12;startSize=8;endSize=8;curved=1;entryX=0.5;entryY=1;entryDx=0;entryDy=0;exitX=0.5;exitY=0;exitDx=0;exitDy=0;" parent="1" source="eOEK0WOAhkfJN-G2YjFY-99" target="Zf1kGV9Rrk3U4kaSFhwW-1" edge="1">
          <mxGeometry width="50" height="50" relative="1" as="geometry">
            <mxPoint x="251" y="446" as="sourcePoint" />
            <mxPoint x="301" y="396" as="targetPoint" />
          </mxGeometry>
        </mxCell>
        <mxCell id="Zf1kGV9Rrk3U4kaSFhwW-8" value="" style="endArrow=none;html=1;rounded=0;fontSize=12;startSize=8;endSize=8;curved=1;entryX=0.5;entryY=1;entryDx=0;entryDy=0;exitX=0.5;exitY=0;exitDx=0;exitDy=0;" parent="1" source="eOEK0WOAhkfJN-G2YjFY-86" target="Zf1kGV9Rrk3U4kaSFhwW-1" edge="1">
          <mxGeometry width="50" height="50" relative="1" as="geometry">
            <mxPoint x="114" y="446" as="sourcePoint" />
            <mxPoint x="164" y="396" as="targetPoint" />
          </mxGeometry>
        </mxCell>
        <mxCell id="UilIoNY0k18aBem4BEjZ-15" value="" style="edgeStyle=entityRelationEdgeStyle;fontSize=12;html=1;endArrow=ERzeroToMany;startArrow=ERmandOne;rounded=0;entryX=0;entryY=0.5;entryDx=0;entryDy=0;exitX=0.492;exitY=1.075;exitDx=0;exitDy=0;exitPerimeter=0;" parent="1" source="eOEK0WOAhkfJN-G2YjFY-37" target="UilIoNY0k18aBem4BEjZ-2" edge="1">
          <mxGeometry width="100" height="100" relative="1" as="geometry">
            <mxPoint x="243" y="58" as="sourcePoint" />
            <mxPoint x="441" y="113" as="targetPoint" />
          </mxGeometry>
        </mxCell>
        <mxCell id="UilIoNY0k18aBem4BEjZ-1" value="INVOICELINE" style="shape=table;startSize=30;container=1;collapsible=1;childLayout=tableLayout;fixedRows=1;rowLines=0;fontStyle=1;align=center;resizeLast=1;html=1;" parent="1" vertex="1">
          <mxGeometry x="-77" y="111" width="180" height="171.1500244140625" as="geometry" />
        </mxCell>
        <mxCell id="UilIoNY0k18aBem4BEjZ-2" value="" style="shape=tableRow;horizontal=0;startSize=0;swimlaneHead=0;swimlaneBody=0;fillColor=none;collapsible=0;dropTarget=0;points=[[0,0.5],[1,0.5]];portConstraint=eastwest;top=0;left=0;right=0;bottom=1;" parent="UilIoNY0k18aBem4BEjZ-1" vertex="1">
          <mxGeometry y="30" width="180" height="51" as="geometry" />
        </mxCell>
        <mxCell id="UilIoNY0k18aBem4BEjZ-3" value="&lt;div&gt;&lt;span style=&quot;background-color: transparent; color: light-dark(rgb(0, 0, 0), rgb(255, 255, 255));&quot;&gt;PK,&amp;nbsp;&lt;/span&gt;&lt;/div&gt;&lt;div&gt;FK1&lt;/div&gt;&lt;div&gt;&lt;span style=&quot;background-color: transparent; color: light-dark(rgb(0, 0, 0), rgb(255, 255, 255));&quot;&gt;FK2&lt;/span&gt;&lt;div&gt;&lt;br&gt;&lt;/div&gt;&lt;/div&gt;" style="shape=partialRectangle;connectable=0;fillColor=none;top=0;left=0;bottom=0;right=0;fontStyle=1;overflow=hidden;whiteSpace=wrap;html=1;" parent="UilIoNY0k18aBem4BEjZ-2" vertex="1">
          <mxGeometry width="50.83333333333333" height="51" as="geometry">
            <mxRectangle width="50.83333333333333" height="51" as="alternateBounds" />
          </mxGeometry>
        </mxCell>
        <mxCell id="UilIoNY0k18aBem4BEjZ-4" value="LINE_ID&lt;br&gt;&lt;div&gt;P_CODE&lt;/div&gt;&lt;div&gt;INV_ID&lt;/div&gt;" style="shape=partialRectangle;connectable=0;fillColor=none;top=0;left=0;bottom=0;right=0;align=left;spacingLeft=6;fontStyle=5;overflow=hidden;whiteSpace=wrap;html=1;" parent="UilIoNY0k18aBem4BEjZ-2" vertex="1">
          <mxGeometry x="50.83333333333333" width="129.16666666666669" height="51" as="geometry">
            <mxRectangle width="129.16666666666669" height="51" as="alternateBounds" />
          </mxGeometry>
        </mxCell>
        <mxCell id="UilIoNY0k18aBem4BEjZ-5" value="" style="shape=tableRow;horizontal=0;startSize=0;swimlaneHead=0;swimlaneBody=0;fillColor=none;collapsible=0;dropTarget=0;points=[[0,0.5],[1,0.5]];portConstraint=eastwest;top=0;left=0;right=0;bottom=0;" parent="UilIoNY0k18aBem4BEjZ-1" vertex="1">
          <mxGeometry y="81" width="180" height="30" as="geometry" />
        </mxCell>
        <mxCell id="UilIoNY0k18aBem4BEjZ-6" value="" style="shape=partialRectangle;connectable=0;fillColor=none;top=0;left=0;bottom=0;right=0;editable=1;overflow=hidden;whiteSpace=wrap;html=1;" parent="UilIoNY0k18aBem4BEjZ-5" vertex="1">
          <mxGeometry width="50.83333333333333" height="30" as="geometry">
            <mxRectangle width="50.83333333333333" height="30" as="alternateBounds" />
          </mxGeometry>
        </mxCell>
        <mxCell id="UilIoNY0k18aBem4BEjZ-7" value="QUANTITY" style="shape=partialRectangle;connectable=0;fillColor=none;top=0;left=0;bottom=0;right=0;align=left;spacingLeft=6;overflow=hidden;whiteSpace=wrap;html=1;" parent="UilIoNY0k18aBem4BEjZ-5" vertex="1">
          <mxGeometry x="50.83333333333333" width="129.16666666666669" height="30" as="geometry">
            <mxRectangle width="129.16666666666669" height="30" as="alternateBounds" />
          </mxGeometry>
        </mxCell>
        <mxCell id="UilIoNY0k18aBem4BEjZ-8" value="" style="shape=tableRow;horizontal=0;startSize=0;swimlaneHead=0;swimlaneBody=0;fillColor=none;collapsible=0;dropTarget=0;points=[[0,0.5],[1,0.5]];portConstraint=eastwest;top=0;left=0;right=0;bottom=0;" parent="UilIoNY0k18aBem4BEjZ-1" vertex="1">
          <mxGeometry y="111" width="180" height="30" as="geometry" />
        </mxCell>
        <mxCell id="UilIoNY0k18aBem4BEjZ-9" value="" style="shape=partialRectangle;connectable=0;fillColor=none;top=0;left=0;bottom=0;right=0;editable=1;overflow=hidden;whiteSpace=wrap;html=1;" parent="UilIoNY0k18aBem4BEjZ-8" vertex="1">
          <mxGeometry width="50.83333333333333" height="30" as="geometry">
            <mxRectangle width="50.83333333333333" height="30" as="alternateBounds" />
          </mxGeometry>
        </mxCell>
        <mxCell id="UilIoNY0k18aBem4BEjZ-10" value="UNIT_PRICE" style="shape=partialRectangle;connectable=0;fillColor=none;top=0;left=0;bottom=0;right=0;align=left;spacingLeft=6;overflow=hidden;whiteSpace=wrap;html=1;" parent="UilIoNY0k18aBem4BEjZ-8" vertex="1">
          <mxGeometry x="50.83333333333333" width="129.16666666666669" height="30" as="geometry">
            <mxRectangle width="129.16666666666669" height="30" as="alternateBounds" />
          </mxGeometry>
        </mxCell>
        <mxCell id="UilIoNY0k18aBem4BEjZ-11" value="" style="shape=tableRow;horizontal=0;startSize=0;swimlaneHead=0;swimlaneBody=0;fillColor=none;collapsible=0;dropTarget=0;points=[[0,0.5],[1,0.5]];portConstraint=eastwest;top=0;left=0;right=0;bottom=0;" parent="UilIoNY0k18aBem4BEjZ-1" vertex="1">
          <mxGeometry y="141" width="180" height="30" as="geometry" />
        </mxCell>
        <mxCell id="UilIoNY0k18aBem4BEjZ-12" value="" style="shape=partialRectangle;connectable=0;fillColor=none;top=0;left=0;bottom=0;right=0;editable=1;overflow=hidden;whiteSpace=wrap;html=1;" parent="UilIoNY0k18aBem4BEjZ-11" vertex="1">
          <mxGeometry width="50.83333333333333" height="30" as="geometry">
            <mxRectangle width="50.83333333333333" height="30" as="alternateBounds" />
          </mxGeometry>
        </mxCell>
        <mxCell id="UilIoNY0k18aBem4BEjZ-13" value="LINE_TOTAL" style="shape=partialRectangle;connectable=0;fillColor=none;top=0;left=0;bottom=0;right=0;align=left;spacingLeft=6;overflow=hidden;whiteSpace=wrap;html=1;" parent="UilIoNY0k18aBem4BEjZ-11" vertex="1">
          <mxGeometry x="50.83333333333333" width="129.16666666666669" height="30" as="geometry">
            <mxRectangle width="129.16666666666669" height="30" as="alternateBounds" />
          </mxGeometry>
        </mxCell>
        <mxCell id="UilIoNY0k18aBem4BEjZ-16" value="" style="edgeStyle=entityRelationEdgeStyle;fontSize=12;html=1;endArrow=ERzeroToMany;startArrow=ERmandOne;rounded=0;entryX=1;entryY=0.5;entryDx=0;entryDy=0;exitX=0;exitY=0.5;exitDx=0;exitDy=0;" parent="1" source="eOEK0WOAhkfJN-G2YjFY-77" target="eOEK0WOAhkfJN-G2YjFY-61" edge="1">
          <mxGeometry width="100" height="100" relative="1" as="geometry">
            <mxPoint x="548" y="299" as="sourcePoint" />
            <mxPoint x="749" y="353" as="targetPoint" />
          </mxGeometry>
        </mxCell>
        <mxCell id="UilIoNY0k18aBem4BEjZ-17" value="" style="edgeStyle=entityRelationEdgeStyle;fontSize=12;html=1;endArrow=ERzeroToMany;startArrow=ERmandOne;rounded=0;entryX=0.711;entryY=0;entryDx=0;entryDy=0;exitX=0.452;exitY=1.033;exitDx=0;exitDy=0;exitPerimeter=0;entryPerimeter=0;" parent="1" source="eOEK0WOAhkfJN-G2YjFY-24" target="eOEK0WOAhkfJN-G2YjFY-73" edge="1">
          <mxGeometry width="100" height="100" relative="1" as="geometry">
            <mxPoint x="591" y="106" as="sourcePoint" />
            <mxPoint x="736" y="94" as="targetPoint" />
          </mxGeometry>
        </mxCell>
        <mxCell id="UilIoNY0k18aBem4BEjZ-19" value="&#39;P&#39;" style="text;html=1;align=center;verticalAlign=middle;whiteSpace=wrap;rounded=0;" parent="1" vertex="1">
          <mxGeometry x="503" y="570" width="60" height="30" as="geometry" />
        </mxCell>
        <mxCell id="UilIoNY0k18aBem4BEjZ-22" value="&#39;S&#39;" style="text;html=1;align=center;verticalAlign=middle;whiteSpace=wrap;rounded=0;" parent="1" vertex="1">
          <mxGeometry x="656" y="570" width="60" height="30" as="geometry" />
        </mxCell>
        <mxCell id="UilIoNY0k18aBem4BEjZ-23" value="&#39;M&#39;" style="text;html=1;align=center;verticalAlign=middle;whiteSpace=wrap;rounded=0;" parent="1" vertex="1">
          <mxGeometry x="890" y="563" width="60" height="30" as="geometry" />
        </mxCell>
        <mxCell id="UilIoNY0k18aBem4BEjZ-135" value="INCUBATOR" style="shape=table;startSize=30;container=1;collapsible=1;childLayout=tableLayout;fixedRows=1;rowLines=0;fontStyle=1;align=center;resizeLast=1;html=1;" parent="1" vertex="1">
          <mxGeometry x="431" y="-99" width="180" height="203.23809523809513" as="geometry" />
        </mxCell>
        <mxCell id="UilIoNY0k18aBem4BEjZ-136" value="" style="shape=tableRow;horizontal=0;startSize=0;swimlaneHead=0;swimlaneBody=0;fillColor=none;collapsible=0;dropTarget=0;points=[[0,0.5],[1,0.5]];portConstraint=eastwest;top=0;left=0;right=0;bottom=1;" parent="UilIoNY0k18aBem4BEjZ-135" vertex="1">
          <mxGeometry y="30" width="180" height="30" as="geometry" />
        </mxCell>
        <mxCell id="UilIoNY0k18aBem4BEjZ-137" value="&lt;div&gt;PK&lt;/div&gt;&lt;div&gt;FK&lt;/div&gt;" style="shape=partialRectangle;connectable=0;fillColor=none;top=0;left=0;bottom=0;right=0;fontStyle=1;overflow=hidden;whiteSpace=wrap;html=1;" parent="UilIoNY0k18aBem4BEjZ-136" vertex="1">
          <mxGeometry width="30" height="30" as="geometry">
            <mxRectangle width="30" height="30" as="alternateBounds" />
          </mxGeometry>
        </mxCell>
        <mxCell id="UilIoNY0k18aBem4BEjZ-138" value="&lt;div&gt;INC_ID&lt;/div&gt;CUS_ID" style="shape=partialRectangle;connectable=0;fillColor=none;top=0;left=0;bottom=0;right=0;align=left;spacingLeft=6;fontStyle=5;overflow=hidden;whiteSpace=wrap;html=1;" parent="UilIoNY0k18aBem4BEjZ-136" vertex="1">
          <mxGeometry x="30" width="150" height="30" as="geometry">
            <mxRectangle width="150" height="30" as="alternateBounds" />
          </mxGeometry>
        </mxCell>
        <mxCell id="UilIoNY0k18aBem4BEjZ-139" value="" style="shape=tableRow;horizontal=0;startSize=0;swimlaneHead=0;swimlaneBody=0;fillColor=none;collapsible=0;dropTarget=0;points=[[0,0.5],[1,0.5]];portConstraint=eastwest;top=0;left=0;right=0;bottom=0;" parent="UilIoNY0k18aBem4BEjZ-135" vertex="1">
          <mxGeometry y="60" width="180" height="23" as="geometry" />
        </mxCell>
        <mxCell id="UilIoNY0k18aBem4BEjZ-140" value="" style="shape=partialRectangle;connectable=0;fillColor=none;top=0;left=0;bottom=0;right=0;editable=1;overflow=hidden;whiteSpace=wrap;html=1;" parent="UilIoNY0k18aBem4BEjZ-139" vertex="1">
          <mxGeometry width="30" height="23" as="geometry">
            <mxRectangle width="30" height="23" as="alternateBounds" />
          </mxGeometry>
        </mxCell>
        <mxCell id="UilIoNY0k18aBem4BEjZ-141" value="INC_START_DATE" style="shape=partialRectangle;connectable=0;fillColor=none;top=0;left=0;bottom=0;right=0;align=left;spacingLeft=6;overflow=hidden;whiteSpace=wrap;html=1;" parent="UilIoNY0k18aBem4BEjZ-139" vertex="1">
          <mxGeometry x="30" width="150" height="23" as="geometry">
            <mxRectangle width="150" height="23" as="alternateBounds" />
          </mxGeometry>
        </mxCell>
        <mxCell id="UilIoNY0k18aBem4BEjZ-142" value="" style="shape=tableRow;horizontal=0;startSize=0;swimlaneHead=0;swimlaneBody=0;fillColor=none;collapsible=0;dropTarget=0;points=[[0,0.5],[1,0.5]];portConstraint=eastwest;top=0;left=0;right=0;bottom=0;" parent="UilIoNY0k18aBem4BEjZ-135" vertex="1">
          <mxGeometry y="83" width="180" height="30" as="geometry" />
        </mxCell>
        <mxCell id="UilIoNY0k18aBem4BEjZ-143" value="" style="shape=partialRectangle;connectable=0;fillColor=none;top=0;left=0;bottom=0;right=0;editable=1;overflow=hidden;whiteSpace=wrap;html=1;" parent="UilIoNY0k18aBem4BEjZ-142" vertex="1">
          <mxGeometry width="30" height="30" as="geometry">
            <mxRectangle width="30" height="30" as="alternateBounds" />
          </mxGeometry>
        </mxCell>
        <mxCell id="UilIoNY0k18aBem4BEjZ-144" value="INC_END_DATE" style="shape=partialRectangle;connectable=0;fillColor=none;top=0;left=0;bottom=0;right=0;align=left;spacingLeft=6;overflow=hidden;whiteSpace=wrap;html=1;" parent="UilIoNY0k18aBem4BEjZ-142" vertex="1">
          <mxGeometry x="30" width="150" height="30" as="geometry">
            <mxRectangle width="150" height="30" as="alternateBounds" />
          </mxGeometry>
        </mxCell>
        <mxCell id="UilIoNY0k18aBem4BEjZ-145" value="" style="shape=tableRow;horizontal=0;startSize=0;swimlaneHead=0;swimlaneBody=0;fillColor=none;collapsible=0;dropTarget=0;points=[[0,0.5],[1,0.5]];portConstraint=eastwest;top=0;left=0;right=0;bottom=0;" parent="UilIoNY0k18aBem4BEjZ-135" vertex="1">
          <mxGeometry y="113" width="180" height="30" as="geometry" />
        </mxCell>
        <mxCell id="UilIoNY0k18aBem4BEjZ-146" value="" style="shape=partialRectangle;connectable=0;fillColor=none;top=0;left=0;bottom=0;right=0;editable=1;overflow=hidden;whiteSpace=wrap;html=1;" parent="UilIoNY0k18aBem4BEjZ-145" vertex="1">
          <mxGeometry width="30" height="30" as="geometry">
            <mxRectangle width="30" height="30" as="alternateBounds" />
          </mxGeometry>
        </mxCell>
        <mxCell id="UilIoNY0k18aBem4BEjZ-147" value="P_CODE" style="shape=partialRectangle;connectable=0;fillColor=none;top=0;left=0;bottom=0;right=0;align=left;spacingLeft=6;overflow=hidden;whiteSpace=wrap;html=1;" parent="UilIoNY0k18aBem4BEjZ-145" vertex="1">
          <mxGeometry x="30" width="150" height="30" as="geometry">
            <mxRectangle width="150" height="30" as="alternateBounds" />
          </mxGeometry>
        </mxCell>
        <mxCell id="BVGRCNfhKDelUMqNGeA3-2" value="" style="shape=tableRow;horizontal=0;startSize=0;swimlaneHead=0;swimlaneBody=0;fillColor=none;collapsible=0;dropTarget=0;points=[[0,0.5],[1,0.5]];portConstraint=eastwest;top=0;left=0;right=0;bottom=0;" parent="UilIoNY0k18aBem4BEjZ-135" vertex="1">
          <mxGeometry y="143" width="180" height="30" as="geometry" />
        </mxCell>
        <mxCell id="BVGRCNfhKDelUMqNGeA3-3" value="" style="shape=partialRectangle;connectable=0;fillColor=none;top=0;left=0;bottom=0;right=0;editable=1;overflow=hidden;whiteSpace=wrap;html=1;" parent="BVGRCNfhKDelUMqNGeA3-2" vertex="1">
          <mxGeometry width="30" height="30" as="geometry">
            <mxRectangle width="30" height="30" as="alternateBounds" />
          </mxGeometry>
        </mxCell>
        <mxCell id="BVGRCNfhKDelUMqNGeA3-4" value="INC_STATUS" style="shape=partialRectangle;connectable=0;fillColor=none;top=0;left=0;bottom=0;right=0;align=left;spacingLeft=6;overflow=hidden;whiteSpace=wrap;html=1;" parent="BVGRCNfhKDelUMqNGeA3-2" vertex="1">
          <mxGeometry x="30" width="150" height="30" as="geometry">
            <mxRectangle width="150" height="30" as="alternateBounds" />
          </mxGeometry>
        </mxCell>
        <mxCell id="2Y9ygeEOdmRXeHhfdFST-32" value="" style="shape=tableRow;horizontal=0;startSize=0;swimlaneHead=0;swimlaneBody=0;fillColor=none;collapsible=0;dropTarget=0;points=[[0,0.5],[1,0.5]];portConstraint=eastwest;top=0;left=0;right=0;bottom=0;" vertex="1" parent="UilIoNY0k18aBem4BEjZ-135">
          <mxGeometry y="173" width="180" height="30" as="geometry" />
        </mxCell>
        <mxCell id="2Y9ygeEOdmRXeHhfdFST-33" value="" style="shape=partialRectangle;connectable=0;fillColor=none;top=0;left=0;bottom=0;right=0;editable=1;overflow=hidden;whiteSpace=wrap;html=1;" vertex="1" parent="2Y9ygeEOdmRXeHhfdFST-32">
          <mxGeometry width="30" height="30" as="geometry">
            <mxRectangle width="30" height="30" as="alternateBounds" />
          </mxGeometry>
        </mxCell>
        <mxCell id="2Y9ygeEOdmRXeHhfdFST-34" value="INC_LOCATION" style="shape=partialRectangle;connectable=0;fillColor=none;top=0;left=0;bottom=0;right=0;align=left;spacingLeft=6;overflow=hidden;whiteSpace=wrap;html=1;" vertex="1" parent="2Y9ygeEOdmRXeHhfdFST-32">
          <mxGeometry x="30" width="150" height="30" as="geometry">
            <mxRectangle width="150" height="30" as="alternateBounds" />
          </mxGeometry>
        </mxCell>
        <mxCell id="E1NpzWW40pVo2pGre52H-1" value="Gets invoice&amp;nbsp;" style="text;html=1;align=center;verticalAlign=middle;whiteSpace=wrap;rounded=0;" parent="1" vertex="1">
          <mxGeometry x="-71" y="-123" width="60" height="30" as="geometry" />
        </mxCell>
        <mxCell id="E1NpzWW40pVo2pGre52H-2" value="Supplies" style="text;html=1;align=center;verticalAlign=middle;whiteSpace=wrap;rounded=0;" parent="1" vertex="1">
          <mxGeometry x="797" y="79" width="60" height="30" as="geometry" />
        </mxCell>
        <mxCell id="E1NpzWW40pVo2pGre52H-3" value="Contains" style="text;html=1;align=center;verticalAlign=middle;whiteSpace=wrap;rounded=0;" parent="1" vertex="1">
          <mxGeometry x="-245" y="116" width="60" height="30" as="geometry" />
        </mxCell>
        <mxCell id="E1NpzWW40pVo2pGre52H-4" value="Requests" style="text;html=1;align=center;verticalAlign=middle;whiteSpace=wrap;rounded=0;" parent="1" vertex="1">
          <mxGeometry x="169" y="157" width="60" height="30" as="geometry" />
        </mxCell>
        <mxCell id="E1NpzWW40pVo2pGre52H-6" value="Sends" style="text;whiteSpace=wrap;html=1;" parent="1" vertex="1">
          <mxGeometry x="587.0033333333334" y="112.99888888888893" width="79" height="36" as="geometry" />
        </mxCell>
        <mxCell id="E1NpzWW40pVo2pGre52H-7" value="Orders" style="text;whiteSpace=wrap;html=1;" parent="1" vertex="1">
          <mxGeometry x="583.0033333333334" y="282.1488888888889" width="79" height="36" as="geometry" />
        </mxCell>
        <mxCell id="E1NpzWW40pVo2pGre52H-8" value="" style="edgeStyle=entityRelationEdgeStyle;fontSize=12;html=1;endArrow=ERzeroToMany;startArrow=ERmandOne;rounded=0;exitX=1.001;exitY=1.119;exitDx=0;exitDy=0;entryX=0;entryY=0;entryDx=0;entryDy=0;exitPerimeter=0;" parent="1" source="UilIoNY0k18aBem4BEjZ-145" target="eOEK0WOAhkfJN-G2YjFY-73" edge="1">
          <mxGeometry width="100" height="100" relative="1" as="geometry">
            <mxPoint x="743" y="400" as="sourcePoint" />
            <mxPoint x="686" y="79" as="targetPoint" />
          </mxGeometry>
        </mxCell>
        <mxCell id="E1NpzWW40pVo2pGre52H-9" value="" style="edgeStyle=entityRelationEdgeStyle;fontSize=12;html=1;endArrow=ERzeroToMany;startArrow=ERmandOne;rounded=0;exitX=1;exitY=0.5;exitDx=0;exitDy=0;entryX=0;entryY=0.5;entryDx=0;entryDy=0;" parent="1" source="eOEK0WOAhkfJN-G2YjFY-8" target="UilIoNY0k18aBem4BEjZ-139" edge="1">
          <mxGeometry width="100" height="100" relative="1" as="geometry">
            <mxPoint x="508" y="-198" as="sourcePoint" />
            <mxPoint x="692" y="-69" as="targetPoint" />
          </mxGeometry>
        </mxCell>
        <mxCell id="E1NpzWW40pVo2pGre52H-10" value="Is Assigned" style="text;whiteSpace=wrap;html=1;" parent="1" vertex="1">
          <mxGeometry x="316.00333333333344" y="-153.00111111111107" width="79" height="36" as="geometry" />
        </mxCell>
        <mxCell id="BVGRCNfhKDelUMqNGeA3-5" value="CUSTOMER( CUS_ID PK, CUS_FNAME, CUS_LNAME, CUS_PHONE, CUS_ADDRESS, CUS_AREA_CODE), INVOICE(INVO_ID PK, CUS_ID FK, INV_DATE, INV_TOTAL), LINE(INV_NUMBER PK, FK1, LINE_NIUMBER FK, INV_QUANTITY FK2, P_AMOUNT, LINE_PRICE), INVENTORY(INV_ID PK, P_CODE FK, INV_QUANTITY, INV_INSTOCK), PRODUCTS(P_CODE, P_PRICE, p_DESCRIPTION, V_ID FK1, P_TYPE, P_DISCOUNT), PLANTS(P_CODE PK FK, PLANT_SPECIES, PLANT_DESCRIPTION, PLANT_SIZE, PLANT_REGION, PLANT_RESTRICTION), SUBSCRIPTION(P_CODE PK FK, SUB_TYPE, SUB_PERIOD, SUB_COST, SUB_LOCATION), MATERIALS(P_CODE FK PK, MAT_WEIGHT, MAT_SIZE, MAT_TYPE), VENDOR(V_ID PK, V_NAME, V_PHONE), INCUBATOR(INC_ID PK, CUS_ID FK, INC_START_DATE, INC_END_DATE, PRODUCT_ID FK, INC_CAPACITY)" style="text;html=1;align=center;verticalAlign=middle;whiteSpace=wrap;rounded=0;" parent="1" vertex="1">
          <mxGeometry x="-187" y="-650" width="510" height="303" as="geometry" />
        </mxCell>
        <mxCell id="BVGRCNfhKDelUMqNGeA3-10" value="CONDITION" style="shape=table;startSize=20;container=1;collapsible=1;childLayout=tableLayout;fixedRows=1;rowLines=0;fontStyle=1;align=center;resizeLast=1;html=1;" parent="1" vertex="1">
          <mxGeometry x="103" y="1166" width="180" height="210" as="geometry" />
        </mxCell>
        <mxCell id="BVGRCNfhKDelUMqNGeA3-11" value="" style="shape=tableRow;horizontal=0;startSize=0;swimlaneHead=0;swimlaneBody=0;fillColor=none;collapsible=0;dropTarget=0;points=[[0,0.5],[1,0.5]];portConstraint=eastwest;top=0;left=0;right=0;bottom=1;" parent="BVGRCNfhKDelUMqNGeA3-10" vertex="1">
          <mxGeometry y="20" width="180" height="30" as="geometry" />
        </mxCell>
        <mxCell id="BVGRCNfhKDelUMqNGeA3-12" value="PK, FK1" style="shape=partialRectangle;connectable=0;fillColor=none;top=0;left=0;bottom=0;right=0;fontStyle=1;overflow=hidden;whiteSpace=wrap;html=1;" parent="BVGRCNfhKDelUMqNGeA3-11" vertex="1">
          <mxGeometry width="30" height="30" as="geometry">
            <mxRectangle width="30" height="30" as="alternateBounds" />
          </mxGeometry>
        </mxCell>
        <mxCell id="BVGRCNfhKDelUMqNGeA3-13" value="CONDITION_ID" style="shape=partialRectangle;connectable=0;fillColor=none;top=0;left=0;bottom=0;right=0;align=left;spacingLeft=6;fontStyle=5;overflow=hidden;whiteSpace=wrap;html=1;" parent="BVGRCNfhKDelUMqNGeA3-11" vertex="1">
          <mxGeometry x="30" width="150" height="30" as="geometry">
            <mxRectangle width="150" height="30" as="alternateBounds" />
          </mxGeometry>
        </mxCell>
        <mxCell id="BVGRCNfhKDelUMqNGeA3-14" value="" style="shape=tableRow;horizontal=0;startSize=0;swimlaneHead=0;swimlaneBody=0;fillColor=none;collapsible=0;dropTarget=0;points=[[0,0.5],[1,0.5]];portConstraint=eastwest;top=0;left=0;right=0;bottom=0;" parent="BVGRCNfhKDelUMqNGeA3-10" vertex="1">
          <mxGeometry y="50" width="180" height="30" as="geometry" />
        </mxCell>
        <mxCell id="BVGRCNfhKDelUMqNGeA3-15" value="" style="shape=partialRectangle;connectable=0;fillColor=none;top=0;left=0;bottom=0;right=0;editable=1;overflow=hidden;whiteSpace=wrap;html=1;" parent="BVGRCNfhKDelUMqNGeA3-14" vertex="1">
          <mxGeometry width="30" height="30" as="geometry">
            <mxRectangle width="30" height="30" as="alternateBounds" />
          </mxGeometry>
        </mxCell>
        <mxCell id="BVGRCNfhKDelUMqNGeA3-16" value="CONDITION_NAME" style="shape=partialRectangle;connectable=0;fillColor=none;top=0;left=0;bottom=0;right=0;align=left;spacingLeft=6;overflow=hidden;whiteSpace=wrap;html=1;" parent="BVGRCNfhKDelUMqNGeA3-14" vertex="1">
          <mxGeometry x="30" width="150" height="30" as="geometry">
            <mxRectangle width="150" height="30" as="alternateBounds" />
          </mxGeometry>
        </mxCell>
        <mxCell id="BVGRCNfhKDelUMqNGeA3-17" value="" style="shape=tableRow;horizontal=0;startSize=0;swimlaneHead=0;swimlaneBody=0;fillColor=none;collapsible=0;dropTarget=0;points=[[0,0.5],[1,0.5]];portConstraint=eastwest;top=0;left=0;right=0;bottom=0;" parent="BVGRCNfhKDelUMqNGeA3-10" vertex="1">
          <mxGeometry y="80" width="180" height="30" as="geometry" />
        </mxCell>
        <mxCell id="BVGRCNfhKDelUMqNGeA3-18" value="" style="shape=partialRectangle;connectable=0;fillColor=none;top=0;left=0;bottom=0;right=0;editable=1;overflow=hidden;whiteSpace=wrap;html=1;" parent="BVGRCNfhKDelUMqNGeA3-17" vertex="1">
          <mxGeometry width="30" height="30" as="geometry">
            <mxRectangle width="30" height="30" as="alternateBounds" />
          </mxGeometry>
        </mxCell>
        <mxCell id="BVGRCNfhKDelUMqNGeA3-19" value="CONDITION_TYPE" style="shape=partialRectangle;connectable=0;fillColor=none;top=0;left=0;bottom=0;right=0;align=left;spacingLeft=6;overflow=hidden;whiteSpace=wrap;html=1;" parent="BVGRCNfhKDelUMqNGeA3-17" vertex="1">
          <mxGeometry x="30" width="150" height="30" as="geometry">
            <mxRectangle width="150" height="30" as="alternateBounds" />
          </mxGeometry>
        </mxCell>
        <mxCell id="BVGRCNfhKDelUMqNGeA3-20" value="" style="shape=tableRow;horizontal=0;startSize=0;swimlaneHead=0;swimlaneBody=0;fillColor=none;collapsible=0;dropTarget=0;points=[[0,0.5],[1,0.5]];portConstraint=eastwest;top=0;left=0;right=0;bottom=0;" parent="BVGRCNfhKDelUMqNGeA3-10" vertex="1">
          <mxGeometry y="110" width="180" height="30" as="geometry" />
        </mxCell>
        <mxCell id="BVGRCNfhKDelUMqNGeA3-21" value="" style="shape=partialRectangle;connectable=0;fillColor=none;top=0;left=0;bottom=0;right=0;editable=1;overflow=hidden;whiteSpace=wrap;html=1;" parent="BVGRCNfhKDelUMqNGeA3-20" vertex="1">
          <mxGeometry width="30" height="30" as="geometry">
            <mxRectangle width="30" height="30" as="alternateBounds" />
          </mxGeometry>
        </mxCell>
        <mxCell id="BVGRCNfhKDelUMqNGeA3-22" value="SEVERITY_LEVEL" style="shape=partialRectangle;connectable=0;fillColor=none;top=0;left=0;bottom=0;right=0;align=left;spacingLeft=6;overflow=hidden;whiteSpace=wrap;html=1;" parent="BVGRCNfhKDelUMqNGeA3-20" vertex="1">
          <mxGeometry x="30" width="150" height="30" as="geometry">
            <mxRectangle width="150" height="30" as="alternateBounds" />
          </mxGeometry>
        </mxCell>
        <mxCell id="BVGRCNfhKDelUMqNGeA3-23" value="" style="shape=tableRow;horizontal=0;startSize=0;swimlaneHead=0;swimlaneBody=0;fillColor=none;collapsible=0;dropTarget=0;points=[[0,0.5],[1,0.5]];portConstraint=eastwest;top=0;left=0;right=0;bottom=0;" parent="BVGRCNfhKDelUMqNGeA3-10" vertex="1">
          <mxGeometry y="140" width="180" height="30" as="geometry" />
        </mxCell>
        <mxCell id="BVGRCNfhKDelUMqNGeA3-24" value="" style="shape=partialRectangle;connectable=0;fillColor=none;top=0;left=0;bottom=0;right=0;editable=1;overflow=hidden;whiteSpace=wrap;html=1;" parent="BVGRCNfhKDelUMqNGeA3-23" vertex="1">
          <mxGeometry width="30" height="30" as="geometry">
            <mxRectangle width="30" height="30" as="alternateBounds" />
          </mxGeometry>
        </mxCell>
        <mxCell id="BVGRCNfhKDelUMqNGeA3-25" value="DESCRIPTION" style="shape=partialRectangle;connectable=0;fillColor=none;top=0;left=0;bottom=0;right=0;align=left;spacingLeft=6;overflow=hidden;whiteSpace=wrap;html=1;" parent="BVGRCNfhKDelUMqNGeA3-23" vertex="1">
          <mxGeometry x="30" width="150" height="30" as="geometry">
            <mxRectangle width="150" height="30" as="alternateBounds" />
          </mxGeometry>
        </mxCell>
        <mxCell id="BVGRCNfhKDelUMqNGeA3-26" style="shape=tableRow;horizontal=0;startSize=0;swimlaneHead=0;swimlaneBody=0;fillColor=none;collapsible=0;dropTarget=0;points=[[0,0.5],[1,0.5]];portConstraint=eastwest;top=0;left=0;right=0;bottom=0;" parent="BVGRCNfhKDelUMqNGeA3-10" vertex="1">
          <mxGeometry y="170" width="180" height="30" as="geometry" />
        </mxCell>
        <mxCell id="BVGRCNfhKDelUMqNGeA3-27" style="shape=partialRectangle;connectable=0;fillColor=none;top=0;left=0;bottom=0;right=0;editable=1;overflow=hidden;whiteSpace=wrap;html=1;" parent="BVGRCNfhKDelUMqNGeA3-26" vertex="1">
          <mxGeometry width="30" height="30" as="geometry">
            <mxRectangle width="30" height="30" as="alternateBounds" />
          </mxGeometry>
        </mxCell>
        <mxCell id="BVGRCNfhKDelUMqNGeA3-28" value="" style="shape=partialRectangle;connectable=0;fillColor=none;top=0;left=0;bottom=0;right=0;align=left;spacingLeft=6;overflow=hidden;whiteSpace=wrap;html=1;" parent="BVGRCNfhKDelUMqNGeA3-26" vertex="1">
          <mxGeometry x="30" width="150" height="30" as="geometry">
            <mxRectangle width="150" height="30" as="alternateBounds" />
          </mxGeometry>
        </mxCell>
        <mxCell id="BVGRCNfhKDelUMqNGeA3-29" value="REGION" style="shape=table;startSize=20;container=1;collapsible=1;childLayout=tableLayout;fixedRows=1;rowLines=0;fontStyle=1;align=center;resizeLast=1;html=1;" parent="1" vertex="1">
          <mxGeometry x="-159" y="742" width="180" height="210" as="geometry" />
        </mxCell>
        <mxCell id="BVGRCNfhKDelUMqNGeA3-30" value="" style="shape=tableRow;horizontal=0;startSize=0;swimlaneHead=0;swimlaneBody=0;fillColor=none;collapsible=0;dropTarget=0;points=[[0,0.5],[1,0.5]];portConstraint=eastwest;top=0;left=0;right=0;bottom=1;" parent="BVGRCNfhKDelUMqNGeA3-29" vertex="1">
          <mxGeometry y="20" width="180" height="30" as="geometry" />
        </mxCell>
        <mxCell id="BVGRCNfhKDelUMqNGeA3-31" value="PK, FK1" style="shape=partialRectangle;connectable=0;fillColor=none;top=0;left=0;bottom=0;right=0;fontStyle=1;overflow=hidden;whiteSpace=wrap;html=1;" parent="BVGRCNfhKDelUMqNGeA3-30" vertex="1">
          <mxGeometry width="30" height="30" as="geometry">
            <mxRectangle width="30" height="30" as="alternateBounds" />
          </mxGeometry>
        </mxCell>
        <mxCell id="BVGRCNfhKDelUMqNGeA3-32" value="REGION_ID" style="shape=partialRectangle;connectable=0;fillColor=none;top=0;left=0;bottom=0;right=0;align=left;spacingLeft=6;fontStyle=5;overflow=hidden;whiteSpace=wrap;html=1;" parent="BVGRCNfhKDelUMqNGeA3-30" vertex="1">
          <mxGeometry x="30" width="150" height="30" as="geometry">
            <mxRectangle width="150" height="30" as="alternateBounds" />
          </mxGeometry>
        </mxCell>
        <mxCell id="BVGRCNfhKDelUMqNGeA3-33" value="" style="shape=tableRow;horizontal=0;startSize=0;swimlaneHead=0;swimlaneBody=0;fillColor=none;collapsible=0;dropTarget=0;points=[[0,0.5],[1,0.5]];portConstraint=eastwest;top=0;left=0;right=0;bottom=0;" parent="BVGRCNfhKDelUMqNGeA3-29" vertex="1">
          <mxGeometry y="50" width="180" height="30" as="geometry" />
        </mxCell>
        <mxCell id="BVGRCNfhKDelUMqNGeA3-34" value="" style="shape=partialRectangle;connectable=0;fillColor=none;top=0;left=0;bottom=0;right=0;editable=1;overflow=hidden;whiteSpace=wrap;html=1;" parent="BVGRCNfhKDelUMqNGeA3-33" vertex="1">
          <mxGeometry width="30" height="30" as="geometry">
            <mxRectangle width="30" height="30" as="alternateBounds" />
          </mxGeometry>
        </mxCell>
        <mxCell id="BVGRCNfhKDelUMqNGeA3-35" value="REGION_NAME" style="shape=partialRectangle;connectable=0;fillColor=none;top=0;left=0;bottom=0;right=0;align=left;spacingLeft=6;overflow=hidden;whiteSpace=wrap;html=1;" parent="BVGRCNfhKDelUMqNGeA3-33" vertex="1">
          <mxGeometry x="30" width="150" height="30" as="geometry">
            <mxRectangle width="150" height="30" as="alternateBounds" />
          </mxGeometry>
        </mxCell>
        <mxCell id="BVGRCNfhKDelUMqNGeA3-36" value="" style="shape=tableRow;horizontal=0;startSize=0;swimlaneHead=0;swimlaneBody=0;fillColor=none;collapsible=0;dropTarget=0;points=[[0,0.5],[1,0.5]];portConstraint=eastwest;top=0;left=0;right=0;bottom=0;" parent="BVGRCNfhKDelUMqNGeA3-29" vertex="1">
          <mxGeometry y="80" width="180" height="30" as="geometry" />
        </mxCell>
        <mxCell id="BVGRCNfhKDelUMqNGeA3-37" value="" style="shape=partialRectangle;connectable=0;fillColor=none;top=0;left=0;bottom=0;right=0;editable=1;overflow=hidden;whiteSpace=wrap;html=1;" parent="BVGRCNfhKDelUMqNGeA3-36" vertex="1">
          <mxGeometry width="30" height="30" as="geometry">
            <mxRectangle width="30" height="30" as="alternateBounds" />
          </mxGeometry>
        </mxCell>
        <mxCell id="BVGRCNfhKDelUMqNGeA3-38" value="REGION_TYPE" style="shape=partialRectangle;connectable=0;fillColor=none;top=0;left=0;bottom=0;right=0;align=left;spacingLeft=6;overflow=hidden;whiteSpace=wrap;html=1;" parent="BVGRCNfhKDelUMqNGeA3-36" vertex="1">
          <mxGeometry x="30" width="150" height="30" as="geometry">
            <mxRectangle width="150" height="30" as="alternateBounds" />
          </mxGeometry>
        </mxCell>
        <mxCell id="BVGRCNfhKDelUMqNGeA3-39" value="" style="shape=tableRow;horizontal=0;startSize=0;swimlaneHead=0;swimlaneBody=0;fillColor=none;collapsible=0;dropTarget=0;points=[[0,0.5],[1,0.5]];portConstraint=eastwest;top=0;left=0;right=0;bottom=0;" parent="BVGRCNfhKDelUMqNGeA3-29" vertex="1">
          <mxGeometry y="110" width="180" height="30" as="geometry" />
        </mxCell>
        <mxCell id="BVGRCNfhKDelUMqNGeA3-40" value="" style="shape=partialRectangle;connectable=0;fillColor=none;top=0;left=0;bottom=0;right=0;editable=1;overflow=hidden;whiteSpace=wrap;html=1;" parent="BVGRCNfhKDelUMqNGeA3-39" vertex="1">
          <mxGeometry width="30" height="30" as="geometry">
            <mxRectangle width="30" height="30" as="alternateBounds" />
          </mxGeometry>
        </mxCell>
        <mxCell id="BVGRCNfhKDelUMqNGeA3-41" value="REGION_RESTRICTIONS" style="shape=partialRectangle;connectable=0;fillColor=none;top=0;left=0;bottom=0;right=0;align=left;spacingLeft=6;overflow=hidden;whiteSpace=wrap;html=1;" parent="BVGRCNfhKDelUMqNGeA3-39" vertex="1">
          <mxGeometry x="30" width="150" height="30" as="geometry">
            <mxRectangle width="150" height="30" as="alternateBounds" />
          </mxGeometry>
        </mxCell>
        <mxCell id="BVGRCNfhKDelUMqNGeA3-42" value="" style="shape=tableRow;horizontal=0;startSize=0;swimlaneHead=0;swimlaneBody=0;fillColor=none;collapsible=0;dropTarget=0;points=[[0,0.5],[1,0.5]];portConstraint=eastwest;top=0;left=0;right=0;bottom=0;" parent="BVGRCNfhKDelUMqNGeA3-29" vertex="1">
          <mxGeometry y="140" width="180" height="30" as="geometry" />
        </mxCell>
        <mxCell id="BVGRCNfhKDelUMqNGeA3-43" value="" style="shape=partialRectangle;connectable=0;fillColor=none;top=0;left=0;bottom=0;right=0;editable=1;overflow=hidden;whiteSpace=wrap;html=1;" parent="BVGRCNfhKDelUMqNGeA3-42" vertex="1">
          <mxGeometry width="30" height="30" as="geometry">
            <mxRectangle width="30" height="30" as="alternateBounds" />
          </mxGeometry>
        </mxCell>
        <mxCell id="BVGRCNfhKDelUMqNGeA3-44" value="" style="shape=partialRectangle;connectable=0;fillColor=none;top=0;left=0;bottom=0;right=0;align=left;spacingLeft=6;overflow=hidden;whiteSpace=wrap;html=1;" parent="BVGRCNfhKDelUMqNGeA3-42" vertex="1">
          <mxGeometry x="30" width="150" height="30" as="geometry">
            <mxRectangle width="150" height="30" as="alternateBounds" />
          </mxGeometry>
        </mxCell>
        <mxCell id="BVGRCNfhKDelUMqNGeA3-45" style="shape=tableRow;horizontal=0;startSize=0;swimlaneHead=0;swimlaneBody=0;fillColor=none;collapsible=0;dropTarget=0;points=[[0,0.5],[1,0.5]];portConstraint=eastwest;top=0;left=0;right=0;bottom=0;" parent="BVGRCNfhKDelUMqNGeA3-29" vertex="1">
          <mxGeometry y="170" width="180" height="30" as="geometry" />
        </mxCell>
        <mxCell id="BVGRCNfhKDelUMqNGeA3-46" style="shape=partialRectangle;connectable=0;fillColor=none;top=0;left=0;bottom=0;right=0;editable=1;overflow=hidden;whiteSpace=wrap;html=1;" parent="BVGRCNfhKDelUMqNGeA3-45" vertex="1">
          <mxGeometry width="30" height="30" as="geometry">
            <mxRectangle width="30" height="30" as="alternateBounds" />
          </mxGeometry>
        </mxCell>
        <mxCell id="BVGRCNfhKDelUMqNGeA3-47" value="" style="shape=partialRectangle;connectable=0;fillColor=none;top=0;left=0;bottom=0;right=0;align=left;spacingLeft=6;overflow=hidden;whiteSpace=wrap;html=1;" parent="BVGRCNfhKDelUMqNGeA3-45" vertex="1">
          <mxGeometry x="30" width="150" height="30" as="geometry">
            <mxRectangle width="150" height="30" as="alternateBounds" />
          </mxGeometry>
        </mxCell>
        <mxCell id="BVGRCNfhKDelUMqNGeA3-48" value="" style="fontSize=12;html=1;endArrow=ERzeroToMany;startArrow=ERmandOne;rounded=0;entryX=1;entryY=0.5;entryDx=0;entryDy=0;exitX=0;exitY=0.5;exitDx=0;exitDy=0;" parent="1" source="UilIoNY0k18aBem4BEjZ-114" target="BVGRCNfhKDelUMqNGeA3-83" edge="1">
          <mxGeometry width="100" height="100" relative="1" as="geometry">
            <mxPoint x="497" y="1234" as="sourcePoint" />
            <mxPoint x="361" y="1238" as="targetPoint" />
          </mxGeometry>
        </mxCell>
        <mxCell id="BVGRCNfhKDelUMqNGeA3-49" value="" style="edgeStyle=entityRelationEdgeStyle;fontSize=12;html=1;endArrow=ERzeroToMany;startArrow=ERmandOne;rounded=0;exitX=0;exitY=0.5;exitDx=0;exitDy=0;entryX=1;entryY=0.5;entryDx=0;entryDy=0;" parent="1" target="BVGRCNfhKDelUMqNGeA3-64" edge="1" source="eOEK0WOAhkfJN-G2YjFY-93">
          <mxGeometry width="100" height="100" relative="1" as="geometry">
            <mxPoint x="406" y="881" as="sourcePoint" />
            <mxPoint x="394" y="986" as="targetPoint" />
          </mxGeometry>
        </mxCell>
        <mxCell id="BVGRCNfhKDelUMqNGeA3-51" value="PLANT_REGION_AVAILABILITY" style="shape=table;startSize=20;container=1;collapsible=1;childLayout=tableLayout;fixedRows=1;rowLines=0;fontStyle=1;align=center;resizeLast=1;html=1;" parent="1" vertex="1">
          <mxGeometry x="112" y="551" width="180" height="240" as="geometry" />
        </mxCell>
        <mxCell id="BVGRCNfhKDelUMqNGeA3-52" value="" style="shape=tableRow;horizontal=0;startSize=0;swimlaneHead=0;swimlaneBody=0;fillColor=none;collapsible=0;dropTarget=0;points=[[0,0.5],[1,0.5]];portConstraint=eastwest;top=0;left=0;right=0;bottom=1;" parent="BVGRCNfhKDelUMqNGeA3-51" vertex="1">
          <mxGeometry y="20" width="180" height="30" as="geometry" />
        </mxCell>
        <mxCell id="BVGRCNfhKDelUMqNGeA3-53" value="PK" style="shape=partialRectangle;connectable=0;fillColor=none;top=0;left=0;bottom=0;right=0;fontStyle=1;overflow=hidden;whiteSpace=wrap;html=1;" parent="BVGRCNfhKDelUMqNGeA3-52" vertex="1">
          <mxGeometry width="30" height="30" as="geometry">
            <mxRectangle width="30" height="30" as="alternateBounds" />
          </mxGeometry>
        </mxCell>
        <mxCell id="BVGRCNfhKDelUMqNGeA3-54" value="AVAILABILITY_ID" style="shape=partialRectangle;connectable=0;fillColor=none;top=0;left=0;bottom=0;right=0;align=left;spacingLeft=6;fontStyle=5;overflow=hidden;whiteSpace=wrap;html=1;" parent="BVGRCNfhKDelUMqNGeA3-52" vertex="1">
          <mxGeometry x="30" width="150" height="30" as="geometry">
            <mxRectangle width="150" height="30" as="alternateBounds" />
          </mxGeometry>
        </mxCell>
        <mxCell id="BVGRCNfhKDelUMqNGeA3-70" value="" style="shape=tableRow;horizontal=0;startSize=0;swimlaneHead=0;swimlaneBody=0;fillColor=none;collapsible=0;dropTarget=0;points=[[0,0.5],[1,0.5]];portConstraint=eastwest;top=0;left=0;right=0;bottom=1;" parent="BVGRCNfhKDelUMqNGeA3-51" vertex="1">
          <mxGeometry y="50" width="180" height="30" as="geometry" />
        </mxCell>
        <mxCell id="BVGRCNfhKDelUMqNGeA3-71" value="FK" style="shape=partialRectangle;connectable=0;fillColor=none;top=0;left=0;bottom=0;right=0;fontStyle=1;overflow=hidden;whiteSpace=wrap;html=1;" parent="BVGRCNfhKDelUMqNGeA3-70" vertex="1">
          <mxGeometry width="30" height="30" as="geometry">
            <mxRectangle width="30" height="30" as="alternateBounds" />
          </mxGeometry>
        </mxCell>
        <mxCell id="BVGRCNfhKDelUMqNGeA3-72" value="PLANT_ID" style="shape=partialRectangle;connectable=0;fillColor=none;top=0;left=0;bottom=0;right=0;align=left;spacingLeft=6;fontStyle=5;overflow=hidden;whiteSpace=wrap;html=1;" parent="BVGRCNfhKDelUMqNGeA3-70" vertex="1">
          <mxGeometry x="30" width="150" height="30" as="geometry">
            <mxRectangle width="150" height="30" as="alternateBounds" />
          </mxGeometry>
        </mxCell>
        <mxCell id="2Y9ygeEOdmRXeHhfdFST-7" style="shape=tableRow;horizontal=0;startSize=0;swimlaneHead=0;swimlaneBody=0;fillColor=none;collapsible=0;dropTarget=0;points=[[0,0.5],[1,0.5]];portConstraint=eastwest;top=0;left=0;right=0;bottom=1;" vertex="1" parent="BVGRCNfhKDelUMqNGeA3-51">
          <mxGeometry y="80" width="180" height="30" as="geometry" />
        </mxCell>
        <mxCell id="2Y9ygeEOdmRXeHhfdFST-8" value="FK" style="shape=partialRectangle;connectable=0;fillColor=none;top=0;left=0;bottom=0;right=0;fontStyle=1;overflow=hidden;whiteSpace=wrap;html=1;" vertex="1" parent="2Y9ygeEOdmRXeHhfdFST-7">
          <mxGeometry width="30" height="30" as="geometry">
            <mxRectangle width="30" height="30" as="alternateBounds" />
          </mxGeometry>
        </mxCell>
        <mxCell id="2Y9ygeEOdmRXeHhfdFST-9" value="REGION_ID" style="shape=partialRectangle;connectable=0;fillColor=none;top=0;left=0;bottom=0;right=0;align=left;spacingLeft=6;fontStyle=5;overflow=hidden;whiteSpace=wrap;html=1;" vertex="1" parent="2Y9ygeEOdmRXeHhfdFST-7">
          <mxGeometry x="30" width="150" height="30" as="geometry">
            <mxRectangle width="150" height="30" as="alternateBounds" />
          </mxGeometry>
        </mxCell>
        <mxCell id="BVGRCNfhKDelUMqNGeA3-55" value="" style="shape=tableRow;horizontal=0;startSize=0;swimlaneHead=0;swimlaneBody=0;fillColor=none;collapsible=0;dropTarget=0;points=[[0,0.5],[1,0.5]];portConstraint=eastwest;top=0;left=0;right=0;bottom=0;" parent="BVGRCNfhKDelUMqNGeA3-51" vertex="1">
          <mxGeometry y="110" width="180" height="30" as="geometry" />
        </mxCell>
        <mxCell id="BVGRCNfhKDelUMqNGeA3-56" value="" style="shape=partialRectangle;connectable=0;fillColor=none;top=0;left=0;bottom=0;right=0;editable=1;overflow=hidden;whiteSpace=wrap;html=1;" parent="BVGRCNfhKDelUMqNGeA3-55" vertex="1">
          <mxGeometry width="30" height="30" as="geometry">
            <mxRectangle width="30" height="30" as="alternateBounds" />
          </mxGeometry>
        </mxCell>
        <mxCell id="BVGRCNfhKDelUMqNGeA3-57" value="IS_ALLOWED" style="shape=partialRectangle;connectable=0;fillColor=none;top=0;left=0;bottom=0;right=0;align=left;spacingLeft=6;overflow=hidden;whiteSpace=wrap;html=1;" parent="BVGRCNfhKDelUMqNGeA3-55" vertex="1">
          <mxGeometry x="30" width="150" height="30" as="geometry">
            <mxRectangle width="150" height="30" as="alternateBounds" />
          </mxGeometry>
        </mxCell>
        <mxCell id="BVGRCNfhKDelUMqNGeA3-61" value="" style="shape=tableRow;horizontal=0;startSize=0;swimlaneHead=0;swimlaneBody=0;fillColor=none;collapsible=0;dropTarget=0;points=[[0,0.5],[1,0.5]];portConstraint=eastwest;top=0;left=0;right=0;bottom=0;" parent="BVGRCNfhKDelUMqNGeA3-51" vertex="1">
          <mxGeometry y="140" width="180" height="30" as="geometry" />
        </mxCell>
        <mxCell id="BVGRCNfhKDelUMqNGeA3-62" value="" style="shape=partialRectangle;connectable=0;fillColor=none;top=0;left=0;bottom=0;right=0;editable=1;overflow=hidden;whiteSpace=wrap;html=1;" parent="BVGRCNfhKDelUMqNGeA3-61" vertex="1">
          <mxGeometry width="30" height="30" as="geometry">
            <mxRectangle width="30" height="30" as="alternateBounds" />
          </mxGeometry>
        </mxCell>
        <mxCell id="BVGRCNfhKDelUMqNGeA3-63" value="" style="shape=partialRectangle;connectable=0;fillColor=none;top=0;left=0;bottom=0;right=0;align=left;spacingLeft=6;overflow=hidden;whiteSpace=wrap;html=1;" parent="BVGRCNfhKDelUMqNGeA3-61" vertex="1">
          <mxGeometry x="30" width="150" height="30" as="geometry">
            <mxRectangle width="150" height="30" as="alternateBounds" />
          </mxGeometry>
        </mxCell>
        <mxCell id="BVGRCNfhKDelUMqNGeA3-64" value="" style="shape=tableRow;horizontal=0;startSize=0;swimlaneHead=0;swimlaneBody=0;fillColor=none;collapsible=0;dropTarget=0;points=[[0,0.5],[1,0.5]];portConstraint=eastwest;top=0;left=0;right=0;bottom=0;" parent="BVGRCNfhKDelUMqNGeA3-51" vertex="1">
          <mxGeometry y="170" width="180" height="30" as="geometry" />
        </mxCell>
        <mxCell id="BVGRCNfhKDelUMqNGeA3-65" value="" style="shape=partialRectangle;connectable=0;fillColor=none;top=0;left=0;bottom=0;right=0;editable=1;overflow=hidden;whiteSpace=wrap;html=1;" parent="BVGRCNfhKDelUMqNGeA3-64" vertex="1">
          <mxGeometry width="30" height="30" as="geometry">
            <mxRectangle width="30" height="30" as="alternateBounds" />
          </mxGeometry>
        </mxCell>
        <mxCell id="BVGRCNfhKDelUMqNGeA3-66" value="" style="shape=partialRectangle;connectable=0;fillColor=none;top=0;left=0;bottom=0;right=0;align=left;spacingLeft=6;overflow=hidden;whiteSpace=wrap;html=1;" parent="BVGRCNfhKDelUMqNGeA3-64" vertex="1">
          <mxGeometry x="30" width="150" height="30" as="geometry">
            <mxRectangle width="150" height="30" as="alternateBounds" />
          </mxGeometry>
        </mxCell>
        <mxCell id="BVGRCNfhKDelUMqNGeA3-67" style="shape=tableRow;horizontal=0;startSize=0;swimlaneHead=0;swimlaneBody=0;fillColor=none;collapsible=0;dropTarget=0;points=[[0,0.5],[1,0.5]];portConstraint=eastwest;top=0;left=0;right=0;bottom=0;" parent="BVGRCNfhKDelUMqNGeA3-51" vertex="1">
          <mxGeometry y="200" width="180" height="30" as="geometry" />
        </mxCell>
        <mxCell id="BVGRCNfhKDelUMqNGeA3-68" style="shape=partialRectangle;connectable=0;fillColor=none;top=0;left=0;bottom=0;right=0;editable=1;overflow=hidden;whiteSpace=wrap;html=1;" parent="BVGRCNfhKDelUMqNGeA3-67" vertex="1">
          <mxGeometry width="30" height="30" as="geometry">
            <mxRectangle width="30" height="30" as="alternateBounds" />
          </mxGeometry>
        </mxCell>
        <mxCell id="BVGRCNfhKDelUMqNGeA3-69" value="" style="shape=partialRectangle;connectable=0;fillColor=none;top=0;left=0;bottom=0;right=0;align=left;spacingLeft=6;overflow=hidden;whiteSpace=wrap;html=1;" parent="BVGRCNfhKDelUMqNGeA3-67" vertex="1">
          <mxGeometry x="30" width="150" height="30" as="geometry">
            <mxRectangle width="150" height="30" as="alternateBounds" />
          </mxGeometry>
        </mxCell>
        <mxCell id="2Y9ygeEOdmRXeHhfdFST-11" style="edgeStyle=none;curved=1;rounded=0;orthogonalLoop=1;jettySize=auto;html=1;exitX=0.75;exitY=1;exitDx=0;exitDy=0;entryX=0.75;entryY=0;entryDx=0;entryDy=0;fontSize=12;startSize=8;endSize=8;" edge="1" parent="1" source="BVGRCNfhKDelUMqNGeA3-73" target="BVGRCNfhKDelUMqNGeA3-10">
          <mxGeometry relative="1" as="geometry" />
        </mxCell>
        <mxCell id="BVGRCNfhKDelUMqNGeA3-73" value="PLANT_REGION_RESTRICTION" style="shape=table;startSize=20;container=1;collapsible=1;childLayout=tableLayout;fixedRows=1;rowLines=0;fontStyle=1;align=center;resizeLast=1;html=1;" parent="1" vertex="1">
          <mxGeometry x="109" y="829" width="180" height="270" as="geometry" />
        </mxCell>
        <mxCell id="BVGRCNfhKDelUMqNGeA3-74" value="" style="shape=tableRow;horizontal=0;startSize=0;swimlaneHead=0;swimlaneBody=0;fillColor=none;collapsible=0;dropTarget=0;points=[[0,0.5],[1,0.5]];portConstraint=eastwest;top=0;left=0;right=0;bottom=1;" parent="BVGRCNfhKDelUMqNGeA3-73" vertex="1">
          <mxGeometry y="20" width="180" height="30" as="geometry" />
        </mxCell>
        <mxCell id="BVGRCNfhKDelUMqNGeA3-75" value="PK" style="shape=partialRectangle;connectable=0;fillColor=none;top=0;left=0;bottom=0;right=0;fontStyle=1;overflow=hidden;whiteSpace=wrap;html=1;" parent="BVGRCNfhKDelUMqNGeA3-74" vertex="1">
          <mxGeometry width="30" height="30" as="geometry">
            <mxRectangle width="30" height="30" as="alternateBounds" />
          </mxGeometry>
        </mxCell>
        <mxCell id="BVGRCNfhKDelUMqNGeA3-76" value="RESTRICTION_ID" style="shape=partialRectangle;connectable=0;fillColor=none;top=0;left=0;bottom=0;right=0;align=left;spacingLeft=6;fontStyle=5;overflow=hidden;whiteSpace=wrap;html=1;" parent="BVGRCNfhKDelUMqNGeA3-74" vertex="1">
          <mxGeometry x="30" width="150" height="30" as="geometry">
            <mxRectangle width="150" height="30" as="alternateBounds" />
          </mxGeometry>
        </mxCell>
        <mxCell id="BVGRCNfhKDelUMqNGeA3-77" value="" style="shape=tableRow;horizontal=0;startSize=0;swimlaneHead=0;swimlaneBody=0;fillColor=none;collapsible=0;dropTarget=0;points=[[0,0.5],[1,0.5]];portConstraint=eastwest;top=0;left=0;right=0;bottom=1;" parent="BVGRCNfhKDelUMqNGeA3-73" vertex="1">
          <mxGeometry y="50" width="180" height="30" as="geometry" />
        </mxCell>
        <mxCell id="BVGRCNfhKDelUMqNGeA3-78" value="FK" style="shape=partialRectangle;connectable=0;fillColor=none;top=0;left=0;bottom=0;right=0;fontStyle=1;overflow=hidden;whiteSpace=wrap;html=1;" parent="BVGRCNfhKDelUMqNGeA3-77" vertex="1">
          <mxGeometry width="30" height="30" as="geometry">
            <mxRectangle width="30" height="30" as="alternateBounds" />
          </mxGeometry>
        </mxCell>
        <mxCell id="BVGRCNfhKDelUMqNGeA3-79" value="PLANT_ID" style="shape=partialRectangle;connectable=0;fillColor=none;top=0;left=0;bottom=0;right=0;align=left;spacingLeft=6;fontStyle=5;overflow=hidden;whiteSpace=wrap;html=1;" parent="BVGRCNfhKDelUMqNGeA3-77" vertex="1">
          <mxGeometry x="30" width="150" height="30" as="geometry">
            <mxRectangle width="150" height="30" as="alternateBounds" />
          </mxGeometry>
        </mxCell>
        <mxCell id="2Y9ygeEOdmRXeHhfdFST-1" value="" style="shape=tableRow;horizontal=0;startSize=0;swimlaneHead=0;swimlaneBody=0;fillColor=none;collapsible=0;dropTarget=0;points=[[0,0.5],[1,0.5]];portConstraint=eastwest;top=0;left=0;right=0;bottom=1;" vertex="1" parent="BVGRCNfhKDelUMqNGeA3-73">
          <mxGeometry y="80" width="180" height="30" as="geometry" />
        </mxCell>
        <mxCell id="2Y9ygeEOdmRXeHhfdFST-2" value="FK" style="shape=partialRectangle;connectable=0;fillColor=none;top=0;left=0;bottom=0;right=0;fontStyle=1;overflow=hidden;whiteSpace=wrap;html=1;" vertex="1" parent="2Y9ygeEOdmRXeHhfdFST-1">
          <mxGeometry width="30" height="30" as="geometry">
            <mxRectangle width="30" height="30" as="alternateBounds" />
          </mxGeometry>
        </mxCell>
        <mxCell id="2Y9ygeEOdmRXeHhfdFST-3" value="REGION_ID" style="shape=partialRectangle;connectable=0;fillColor=none;top=0;left=0;bottom=0;right=0;align=left;spacingLeft=6;fontStyle=5;overflow=hidden;whiteSpace=wrap;html=1;" vertex="1" parent="2Y9ygeEOdmRXeHhfdFST-1">
          <mxGeometry x="30" width="150" height="30" as="geometry">
            <mxRectangle width="150" height="30" as="alternateBounds" />
          </mxGeometry>
        </mxCell>
        <mxCell id="2Y9ygeEOdmRXeHhfdFST-4" value="" style="shape=tableRow;horizontal=0;startSize=0;swimlaneHead=0;swimlaneBody=0;fillColor=none;collapsible=0;dropTarget=0;points=[[0,0.5],[1,0.5]];portConstraint=eastwest;top=0;left=0;right=0;bottom=1;" vertex="1" parent="BVGRCNfhKDelUMqNGeA3-73">
          <mxGeometry y="110" width="180" height="30" as="geometry" />
        </mxCell>
        <mxCell id="2Y9ygeEOdmRXeHhfdFST-5" value="FK" style="shape=partialRectangle;connectable=0;fillColor=none;top=0;left=0;bottom=0;right=0;fontStyle=1;overflow=hidden;whiteSpace=wrap;html=1;" vertex="1" parent="2Y9ygeEOdmRXeHhfdFST-4">
          <mxGeometry width="30" height="30" as="geometry">
            <mxRectangle width="30" height="30" as="alternateBounds" />
          </mxGeometry>
        </mxCell>
        <mxCell id="2Y9ygeEOdmRXeHhfdFST-6" value="&lt;span style=&quot;font-weight: 400;&quot;&gt;CONDITION_ID&lt;/span&gt;" style="shape=partialRectangle;connectable=0;fillColor=none;top=0;left=0;bottom=0;right=0;align=left;spacingLeft=6;fontStyle=5;overflow=hidden;whiteSpace=wrap;html=1;" vertex="1" parent="2Y9ygeEOdmRXeHhfdFST-4">
          <mxGeometry x="30" width="150" height="30" as="geometry">
            <mxRectangle width="150" height="30" as="alternateBounds" />
          </mxGeometry>
        </mxCell>
        <mxCell id="BVGRCNfhKDelUMqNGeA3-80" value="" style="shape=tableRow;horizontal=0;startSize=0;swimlaneHead=0;swimlaneBody=0;fillColor=none;collapsible=0;dropTarget=0;points=[[0,0.5],[1,0.5]];portConstraint=eastwest;top=0;left=0;right=0;bottom=0;" parent="BVGRCNfhKDelUMqNGeA3-73" vertex="1">
          <mxGeometry y="140" width="180" height="30" as="geometry" />
        </mxCell>
        <mxCell id="BVGRCNfhKDelUMqNGeA3-81" value="" style="shape=partialRectangle;connectable=0;fillColor=none;top=0;left=0;bottom=0;right=0;editable=1;overflow=hidden;whiteSpace=wrap;html=1;" parent="BVGRCNfhKDelUMqNGeA3-80" vertex="1">
          <mxGeometry width="30" height="30" as="geometry">
            <mxRectangle width="30" height="30" as="alternateBounds" />
          </mxGeometry>
        </mxCell>
        <mxCell id="BVGRCNfhKDelUMqNGeA3-82" value="IS_ACTIVE" style="shape=partialRectangle;connectable=0;fillColor=none;top=0;left=0;bottom=0;right=0;align=left;spacingLeft=6;overflow=hidden;whiteSpace=wrap;html=1;" parent="BVGRCNfhKDelUMqNGeA3-80" vertex="1">
          <mxGeometry x="30" width="150" height="30" as="geometry">
            <mxRectangle width="150" height="30" as="alternateBounds" />
          </mxGeometry>
        </mxCell>
        <mxCell id="BVGRCNfhKDelUMqNGeA3-83" value="" style="shape=tableRow;horizontal=0;startSize=0;swimlaneHead=0;swimlaneBody=0;fillColor=none;collapsible=0;dropTarget=0;points=[[0,0.5],[1,0.5]];portConstraint=eastwest;top=0;left=0;right=0;bottom=0;" parent="BVGRCNfhKDelUMqNGeA3-73" vertex="1">
          <mxGeometry y="170" width="180" height="30" as="geometry" />
        </mxCell>
        <mxCell id="BVGRCNfhKDelUMqNGeA3-84" value="" style="shape=partialRectangle;connectable=0;fillColor=none;top=0;left=0;bottom=0;right=0;editable=1;overflow=hidden;whiteSpace=wrap;html=1;" parent="BVGRCNfhKDelUMqNGeA3-83" vertex="1">
          <mxGeometry width="30" height="30" as="geometry">
            <mxRectangle width="30" height="30" as="alternateBounds" />
          </mxGeometry>
        </mxCell>
        <mxCell id="BVGRCNfhKDelUMqNGeA3-85" value="NOTES" style="shape=partialRectangle;connectable=0;fillColor=none;top=0;left=0;bottom=0;right=0;align=left;spacingLeft=6;overflow=hidden;whiteSpace=wrap;html=1;" parent="BVGRCNfhKDelUMqNGeA3-83" vertex="1">
          <mxGeometry x="30" width="150" height="30" as="geometry">
            <mxRectangle width="150" height="30" as="alternateBounds" />
          </mxGeometry>
        </mxCell>
        <mxCell id="BVGRCNfhKDelUMqNGeA3-86" value="" style="shape=tableRow;horizontal=0;startSize=0;swimlaneHead=0;swimlaneBody=0;fillColor=none;collapsible=0;dropTarget=0;points=[[0,0.5],[1,0.5]];portConstraint=eastwest;top=0;left=0;right=0;bottom=0;" parent="BVGRCNfhKDelUMqNGeA3-73" vertex="1">
          <mxGeometry y="200" width="180" height="30" as="geometry" />
        </mxCell>
        <mxCell id="BVGRCNfhKDelUMqNGeA3-87" value="" style="shape=partialRectangle;connectable=0;fillColor=none;top=0;left=0;bottom=0;right=0;editable=1;overflow=hidden;whiteSpace=wrap;html=1;" parent="BVGRCNfhKDelUMqNGeA3-86" vertex="1">
          <mxGeometry width="30" height="30" as="geometry">
            <mxRectangle width="30" height="30" as="alternateBounds" />
          </mxGeometry>
        </mxCell>
        <mxCell id="BVGRCNfhKDelUMqNGeA3-88" value="" style="shape=partialRectangle;connectable=0;fillColor=none;top=0;left=0;bottom=0;right=0;align=left;spacingLeft=6;overflow=hidden;whiteSpace=wrap;html=1;" parent="BVGRCNfhKDelUMqNGeA3-86" vertex="1">
          <mxGeometry x="30" width="150" height="30" as="geometry">
            <mxRectangle width="150" height="30" as="alternateBounds" />
          </mxGeometry>
        </mxCell>
        <mxCell id="BVGRCNfhKDelUMqNGeA3-89" style="shape=tableRow;horizontal=0;startSize=0;swimlaneHead=0;swimlaneBody=0;fillColor=none;collapsible=0;dropTarget=0;points=[[0,0.5],[1,0.5]];portConstraint=eastwest;top=0;left=0;right=0;bottom=0;" parent="BVGRCNfhKDelUMqNGeA3-73" vertex="1">
          <mxGeometry y="230" width="180" height="30" as="geometry" />
        </mxCell>
        <mxCell id="BVGRCNfhKDelUMqNGeA3-90" style="shape=partialRectangle;connectable=0;fillColor=none;top=0;left=0;bottom=0;right=0;editable=1;overflow=hidden;whiteSpace=wrap;html=1;" parent="BVGRCNfhKDelUMqNGeA3-89" vertex="1">
          <mxGeometry width="30" height="30" as="geometry">
            <mxRectangle width="30" height="30" as="alternateBounds" />
          </mxGeometry>
        </mxCell>
        <mxCell id="BVGRCNfhKDelUMqNGeA3-91" value="" style="shape=partialRectangle;connectable=0;fillColor=none;top=0;left=0;bottom=0;right=0;align=left;spacingLeft=6;overflow=hidden;whiteSpace=wrap;html=1;" parent="BVGRCNfhKDelUMqNGeA3-89" vertex="1">
          <mxGeometry x="30" width="150" height="30" as="geometry">
            <mxRectangle width="150" height="30" as="alternateBounds" />
          </mxGeometry>
        </mxCell>
        <mxCell id="BVGRCNfhKDelUMqNGeA3-92" value="" style="edgeStyle=entityRelationEdgeStyle;fontSize=12;html=1;endArrow=ERzeroToMany;startArrow=ERmandOne;rounded=0;entryX=0;entryY=0.5;entryDx=0;entryDy=0;exitX=1;exitY=0.5;exitDx=0;exitDy=0;" parent="1" source="BVGRCNfhKDelUMqNGeA3-36" target="BVGRCNfhKDelUMqNGeA3-64" edge="1">
          <mxGeometry width="100" height="100" relative="1" as="geometry">
            <mxPoint x="246" y="1401.25" as="sourcePoint" />
            <mxPoint x="-38.180000000000064" y="1187" as="targetPoint" />
          </mxGeometry>
        </mxCell>
        <mxCell id="BVGRCNfhKDelUMqNGeA3-93" value="" style="edgeStyle=entityRelationEdgeStyle;fontSize=12;html=1;endArrow=ERzeroToMany;startArrow=ERmandOne;rounded=0;exitX=1;exitY=0.5;exitDx=0;exitDy=0;entryX=0.003;entryY=0.33;entryDx=0;entryDy=0;entryPerimeter=0;" parent="1" source="BVGRCNfhKDelUMqNGeA3-42" edge="1" target="BVGRCNfhKDelUMqNGeA3-80">
          <mxGeometry width="100" height="100" relative="1" as="geometry">
            <mxPoint x="23" y="1074" as="sourcePoint" />
            <mxPoint x="-238" y="990" as="targetPoint" />
            <Array as="points">
              <mxPoint x="-275" y="1113" />
              <mxPoint x="-251" y="1054" />
            </Array>
          </mxGeometry>
        </mxCell>
        <mxCell id="2Y9ygeEOdmRXeHhfdFST-16" value="PROMOTIONS" style="shape=table;startSize=30;container=1;collapsible=1;childLayout=tableLayout;fixedRows=1;rowLines=0;fontStyle=1;align=center;resizeLast=1;html=1;" vertex="1" parent="1">
          <mxGeometry x="1083" y="290" width="180" height="150" as="geometry" />
        </mxCell>
        <mxCell id="2Y9ygeEOdmRXeHhfdFST-17" value="" style="shape=tableRow;horizontal=0;startSize=0;swimlaneHead=0;swimlaneBody=0;fillColor=none;collapsible=0;dropTarget=0;points=[[0,0.5],[1,0.5]];portConstraint=eastwest;top=0;left=0;right=0;bottom=1;" vertex="1" parent="2Y9ygeEOdmRXeHhfdFST-16">
          <mxGeometry y="30" width="180" height="30" as="geometry" />
        </mxCell>
        <mxCell id="2Y9ygeEOdmRXeHhfdFST-18" value="PK, FK1" style="shape=partialRectangle;connectable=0;fillColor=none;top=0;left=0;bottom=0;right=0;fontStyle=1;overflow=hidden;whiteSpace=wrap;html=1;" vertex="1" parent="2Y9ygeEOdmRXeHhfdFST-17">
          <mxGeometry width="30" height="30" as="geometry">
            <mxRectangle width="30" height="30" as="alternateBounds" />
          </mxGeometry>
        </mxCell>
        <mxCell id="2Y9ygeEOdmRXeHhfdFST-19" value="PROMO_CODE" style="shape=partialRectangle;connectable=0;fillColor=none;top=0;left=0;bottom=0;right=0;align=left;spacingLeft=6;fontStyle=5;overflow=hidden;whiteSpace=wrap;html=1;" vertex="1" parent="2Y9ygeEOdmRXeHhfdFST-17">
          <mxGeometry x="30" width="150" height="30" as="geometry">
            <mxRectangle width="150" height="30" as="alternateBounds" />
          </mxGeometry>
        </mxCell>
        <mxCell id="2Y9ygeEOdmRXeHhfdFST-20" value="" style="shape=tableRow;horizontal=0;startSize=0;swimlaneHead=0;swimlaneBody=0;fillColor=none;collapsible=0;dropTarget=0;points=[[0,0.5],[1,0.5]];portConstraint=eastwest;top=0;left=0;right=0;bottom=0;" vertex="1" parent="2Y9ygeEOdmRXeHhfdFST-16">
          <mxGeometry y="60" width="180" height="30" as="geometry" />
        </mxCell>
        <mxCell id="2Y9ygeEOdmRXeHhfdFST-21" value="" style="shape=partialRectangle;connectable=0;fillColor=none;top=0;left=0;bottom=0;right=0;editable=1;overflow=hidden;whiteSpace=wrap;html=1;" vertex="1" parent="2Y9ygeEOdmRXeHhfdFST-20">
          <mxGeometry width="30" height="30" as="geometry">
            <mxRectangle width="30" height="30" as="alternateBounds" />
          </mxGeometry>
        </mxCell>
        <mxCell id="2Y9ygeEOdmRXeHhfdFST-22" value="PROMO_NAME" style="shape=partialRectangle;connectable=0;fillColor=none;top=0;left=0;bottom=0;right=0;align=left;spacingLeft=6;overflow=hidden;whiteSpace=wrap;html=1;" vertex="1" parent="2Y9ygeEOdmRXeHhfdFST-20">
          <mxGeometry x="30" width="150" height="30" as="geometry">
            <mxRectangle width="150" height="30" as="alternateBounds" />
          </mxGeometry>
        </mxCell>
        <mxCell id="2Y9ygeEOdmRXeHhfdFST-23" value="" style="shape=tableRow;horizontal=0;startSize=0;swimlaneHead=0;swimlaneBody=0;fillColor=none;collapsible=0;dropTarget=0;points=[[0,0.5],[1,0.5]];portConstraint=eastwest;top=0;left=0;right=0;bottom=0;" vertex="1" parent="2Y9ygeEOdmRXeHhfdFST-16">
          <mxGeometry y="90" width="180" height="30" as="geometry" />
        </mxCell>
        <mxCell id="2Y9ygeEOdmRXeHhfdFST-24" value="" style="shape=partialRectangle;connectable=0;fillColor=none;top=0;left=0;bottom=0;right=0;editable=1;overflow=hidden;whiteSpace=wrap;html=1;" vertex="1" parent="2Y9ygeEOdmRXeHhfdFST-23">
          <mxGeometry width="30" height="30" as="geometry">
            <mxRectangle width="30" height="30" as="alternateBounds" />
          </mxGeometry>
        </mxCell>
        <mxCell id="2Y9ygeEOdmRXeHhfdFST-25" value="PROMO_DISCOUNT" style="shape=partialRectangle;connectable=0;fillColor=none;top=0;left=0;bottom=0;right=0;align=left;spacingLeft=6;overflow=hidden;whiteSpace=wrap;html=1;" vertex="1" parent="2Y9ygeEOdmRXeHhfdFST-23">
          <mxGeometry x="30" width="150" height="30" as="geometry">
            <mxRectangle width="150" height="30" as="alternateBounds" />
          </mxGeometry>
        </mxCell>
        <mxCell id="2Y9ygeEOdmRXeHhfdFST-26" value="" style="shape=tableRow;horizontal=0;startSize=0;swimlaneHead=0;swimlaneBody=0;fillColor=none;collapsible=0;dropTarget=0;points=[[0,0.5],[1,0.5]];portConstraint=eastwest;top=0;left=0;right=0;bottom=0;" vertex="1" parent="2Y9ygeEOdmRXeHhfdFST-16">
          <mxGeometry y="120" width="180" height="30" as="geometry" />
        </mxCell>
        <mxCell id="2Y9ygeEOdmRXeHhfdFST-27" value="" style="shape=partialRectangle;connectable=0;fillColor=none;top=0;left=0;bottom=0;right=0;editable=1;overflow=hidden;whiteSpace=wrap;html=1;" vertex="1" parent="2Y9ygeEOdmRXeHhfdFST-26">
          <mxGeometry width="30" height="30" as="geometry">
            <mxRectangle width="30" height="30" as="alternateBounds" />
          </mxGeometry>
        </mxCell>
        <mxCell id="2Y9ygeEOdmRXeHhfdFST-28" value="PROMO_DESCRIPTION" style="shape=partialRectangle;connectable=0;fillColor=none;top=0;left=0;bottom=0;right=0;align=left;spacingLeft=6;overflow=hidden;whiteSpace=wrap;html=1;" vertex="1" parent="2Y9ygeEOdmRXeHhfdFST-26">
          <mxGeometry x="30" width="150" height="30" as="geometry">
            <mxRectangle width="150" height="30" as="alternateBounds" />
          </mxGeometry>
        </mxCell>
        <mxCell id="2Y9ygeEOdmRXeHhfdFST-35" value="INCUBATORPRODUCT" style="shape=table;startSize=30;container=1;collapsible=1;childLayout=tableLayout;fixedRows=1;rowLines=0;fontStyle=1;align=center;resizeLast=1;html=1;" vertex="1" parent="1">
          <mxGeometry x="414" y="-356.24" width="180" height="209" as="geometry" />
        </mxCell>
        <mxCell id="2Y9ygeEOdmRXeHhfdFST-36" value="" style="shape=tableRow;horizontal=0;startSize=0;swimlaneHead=0;swimlaneBody=0;fillColor=none;collapsible=0;dropTarget=0;points=[[0,0.5],[1,0.5]];portConstraint=eastwest;top=0;left=0;right=0;bottom=1;" vertex="1" parent="2Y9ygeEOdmRXeHhfdFST-35">
          <mxGeometry y="30" width="180" height="30" as="geometry" />
        </mxCell>
        <mxCell id="2Y9ygeEOdmRXeHhfdFST-37" value="&lt;div&gt;PKFK&lt;/div&gt;&lt;div&gt;FK&lt;/div&gt;" style="shape=partialRectangle;connectable=0;fillColor=none;top=0;left=0;bottom=0;right=0;fontStyle=1;overflow=hidden;whiteSpace=wrap;html=1;" vertex="1" parent="2Y9ygeEOdmRXeHhfdFST-36">
          <mxGeometry width="37.636363636363626" height="30" as="geometry">
            <mxRectangle width="37.636363636363626" height="30" as="alternateBounds" />
          </mxGeometry>
        </mxCell>
        <mxCell id="2Y9ygeEOdmRXeHhfdFST-38" value="&lt;div&gt;INC_ID&lt;/div&gt;P_CODE" style="shape=partialRectangle;connectable=0;fillColor=none;top=0;left=0;bottom=0;right=0;align=left;spacingLeft=6;fontStyle=5;overflow=hidden;whiteSpace=wrap;html=1;" vertex="1" parent="2Y9ygeEOdmRXeHhfdFST-36">
          <mxGeometry x="37.636363636363626" width="142.36363636363637" height="30" as="geometry">
            <mxRectangle width="142.36363636363637" height="30" as="alternateBounds" />
          </mxGeometry>
        </mxCell>
        <mxCell id="2Y9ygeEOdmRXeHhfdFST-39" value="" style="shape=tableRow;horizontal=0;startSize=0;swimlaneHead=0;swimlaneBody=0;fillColor=none;collapsible=0;dropTarget=0;points=[[0,0.5],[1,0.5]];portConstraint=eastwest;top=0;left=0;right=0;bottom=0;" vertex="1" parent="2Y9ygeEOdmRXeHhfdFST-35">
          <mxGeometry y="60" width="180" height="29" as="geometry" />
        </mxCell>
        <mxCell id="2Y9ygeEOdmRXeHhfdFST-40" value="" style="shape=partialRectangle;connectable=0;fillColor=none;top=0;left=0;bottom=0;right=0;editable=1;overflow=hidden;whiteSpace=wrap;html=1;" vertex="1" parent="2Y9ygeEOdmRXeHhfdFST-39">
          <mxGeometry width="37.636363636363626" height="29" as="geometry">
            <mxRectangle width="37.636363636363626" height="29" as="alternateBounds" />
          </mxGeometry>
        </mxCell>
        <mxCell id="2Y9ygeEOdmRXeHhfdFST-41" value="ASSIGNED_DATE" style="shape=partialRectangle;connectable=0;fillColor=none;top=0;left=0;bottom=0;right=0;align=left;spacingLeft=6;overflow=hidden;whiteSpace=wrap;html=1;" vertex="1" parent="2Y9ygeEOdmRXeHhfdFST-39">
          <mxGeometry x="37.636363636363626" width="142.36363636363637" height="29" as="geometry">
            <mxRectangle width="142.36363636363637" height="29" as="alternateBounds" />
          </mxGeometry>
        </mxCell>
        <mxCell id="2Y9ygeEOdmRXeHhfdFST-42" value="" style="shape=tableRow;horizontal=0;startSize=0;swimlaneHead=0;swimlaneBody=0;fillColor=none;collapsible=0;dropTarget=0;points=[[0,0.5],[1,0.5]];portConstraint=eastwest;top=0;left=0;right=0;bottom=0;" vertex="1" parent="2Y9ygeEOdmRXeHhfdFST-35">
          <mxGeometry y="89" width="180" height="30" as="geometry" />
        </mxCell>
        <mxCell id="2Y9ygeEOdmRXeHhfdFST-43" value="" style="shape=partialRectangle;connectable=0;fillColor=none;top=0;left=0;bottom=0;right=0;editable=1;overflow=hidden;whiteSpace=wrap;html=1;" vertex="1" parent="2Y9ygeEOdmRXeHhfdFST-42">
          <mxGeometry width="37.636363636363626" height="30" as="geometry">
            <mxRectangle width="37.636363636363626" height="30" as="alternateBounds" />
          </mxGeometry>
        </mxCell>
        <mxCell id="2Y9ygeEOdmRXeHhfdFST-44" value="NOTES" style="shape=partialRectangle;connectable=0;fillColor=none;top=0;left=0;bottom=0;right=0;align=left;spacingLeft=6;overflow=hidden;whiteSpace=wrap;html=1;" vertex="1" parent="2Y9ygeEOdmRXeHhfdFST-42">
          <mxGeometry x="37.636363636363626" width="142.36363636363637" height="30" as="geometry">
            <mxRectangle width="142.36363636363637" height="30" as="alternateBounds" />
          </mxGeometry>
        </mxCell>
        <mxCell id="2Y9ygeEOdmRXeHhfdFST-45" value="" style="shape=tableRow;horizontal=0;startSize=0;swimlaneHead=0;swimlaneBody=0;fillColor=none;collapsible=0;dropTarget=0;points=[[0,0.5],[1,0.5]];portConstraint=eastwest;top=0;left=0;right=0;bottom=0;" vertex="1" parent="2Y9ygeEOdmRXeHhfdFST-35">
          <mxGeometry y="119" width="180" height="30" as="geometry" />
        </mxCell>
        <mxCell id="2Y9ygeEOdmRXeHhfdFST-46" value="" style="shape=partialRectangle;connectable=0;fillColor=none;top=0;left=0;bottom=0;right=0;editable=1;overflow=hidden;whiteSpace=wrap;html=1;" vertex="1" parent="2Y9ygeEOdmRXeHhfdFST-45">
          <mxGeometry width="37.636363636363626" height="30" as="geometry">
            <mxRectangle width="37.636363636363626" height="30" as="alternateBounds" />
          </mxGeometry>
        </mxCell>
        <mxCell id="2Y9ygeEOdmRXeHhfdFST-47" value="" style="shape=partialRectangle;connectable=0;fillColor=none;top=0;left=0;bottom=0;right=0;align=left;spacingLeft=6;overflow=hidden;whiteSpace=wrap;html=1;" vertex="1" parent="2Y9ygeEOdmRXeHhfdFST-45">
          <mxGeometry x="37.636363636363626" width="142.36363636363637" height="30" as="geometry">
            <mxRectangle width="142.36363636363637" height="30" as="alternateBounds" />
          </mxGeometry>
        </mxCell>
        <mxCell id="2Y9ygeEOdmRXeHhfdFST-48" value="" style="shape=tableRow;horizontal=0;startSize=0;swimlaneHead=0;swimlaneBody=0;fillColor=none;collapsible=0;dropTarget=0;points=[[0,0.5],[1,0.5]];portConstraint=eastwest;top=0;left=0;right=0;bottom=0;" vertex="1" parent="2Y9ygeEOdmRXeHhfdFST-35">
          <mxGeometry y="149" width="180" height="30" as="geometry" />
        </mxCell>
        <mxCell id="2Y9ygeEOdmRXeHhfdFST-49" value="" style="shape=partialRectangle;connectable=0;fillColor=none;top=0;left=0;bottom=0;right=0;editable=1;overflow=hidden;whiteSpace=wrap;html=1;" vertex="1" parent="2Y9ygeEOdmRXeHhfdFST-48">
          <mxGeometry width="37.636363636363626" height="30" as="geometry">
            <mxRectangle width="37.636363636363626" height="30" as="alternateBounds" />
          </mxGeometry>
        </mxCell>
        <mxCell id="2Y9ygeEOdmRXeHhfdFST-50" value="" style="shape=partialRectangle;connectable=0;fillColor=none;top=0;left=0;bottom=0;right=0;align=left;spacingLeft=6;overflow=hidden;whiteSpace=wrap;html=1;" vertex="1" parent="2Y9ygeEOdmRXeHhfdFST-48">
          <mxGeometry x="37.636363636363626" width="142.36363636363637" height="30" as="geometry">
            <mxRectangle width="142.36363636363637" height="30" as="alternateBounds" />
          </mxGeometry>
        </mxCell>
        <mxCell id="2Y9ygeEOdmRXeHhfdFST-51" value="" style="shape=tableRow;horizontal=0;startSize=0;swimlaneHead=0;swimlaneBody=0;fillColor=none;collapsible=0;dropTarget=0;points=[[0,0.5],[1,0.5]];portConstraint=eastwest;top=0;left=0;right=0;bottom=0;" vertex="1" parent="2Y9ygeEOdmRXeHhfdFST-35">
          <mxGeometry y="179" width="180" height="30" as="geometry" />
        </mxCell>
        <mxCell id="2Y9ygeEOdmRXeHhfdFST-52" value="" style="shape=partialRectangle;connectable=0;fillColor=none;top=0;left=0;bottom=0;right=0;editable=1;overflow=hidden;whiteSpace=wrap;html=1;" vertex="1" parent="2Y9ygeEOdmRXeHhfdFST-51">
          <mxGeometry width="37.636363636363626" height="30" as="geometry">
            <mxRectangle width="37.636363636363626" height="30" as="alternateBounds" />
          </mxGeometry>
        </mxCell>
        <mxCell id="2Y9ygeEOdmRXeHhfdFST-53" value="" style="shape=partialRectangle;connectable=0;fillColor=none;top=0;left=0;bottom=0;right=0;align=left;spacingLeft=6;overflow=hidden;whiteSpace=wrap;html=1;" vertex="1" parent="2Y9ygeEOdmRXeHhfdFST-51">
          <mxGeometry x="37.636363636363626" width="142.36363636363637" height="30" as="geometry">
            <mxRectangle width="142.36363636363637" height="30" as="alternateBounds" />
          </mxGeometry>
        </mxCell>
      </root>
    </mxGraphModel>
  </diagram>
</mxfile>
